# Blender v2.78 (sub 0) OBJ File: 'igs_warehouse_1.blend'
# www.blender.org
v -0.500000 -0.500000 0.000000
v 0.500000 -0.500000 0.000000
v -0.500000 0.500000 0.000000
v 0.500000 0.500000 0.000000
v -0.500000 0.476636 0.001546
v -0.500000 0.000000 0.001464
v -0.500000 -0.476636 0.001546
v 0.500000 -0.476636 0.001546
v 0.500000 0.000000 0.001464
v 0.500000 0.476636 0.001546
v -0.500000 0.357477 0.002291
v 0.500000 0.357477 0.002291
v -0.500000 -0.357477 0.002291
v 0.500000 -0.357477 0.002291
vt 0.4838 0.0132
vt 0.4953 0.4885
vt 0.4838 0.4887
vt 0.0030 0.0130
vt 0.0145 0.4887
vt 0.0030 0.4885
vt 0.0732 0.0133
vt 0.2492 0.4887
vt 0.0732 0.4888
vt 0.4251 0.0133
vt 0.4251 0.4888
vt 0.2492 0.0132
vt 0.0145 0.0132
vt 0.4953 0.0130
vn 0.0000 0.0660 0.9978
vn 0.0000 -0.0660 0.9978
vn 0.0000 0.0023 1.0000
vn 0.0000 0.0063 1.0000
vn 0.0000 -0.0023 1.0000
vn 0.0000 -0.0063 1.0000
s off
f 10/1/1 3/2/1 5/3/1
f 2/4/2 7/5/2 1/6/2
f 14/7/3 6/8/3 13/9/3
f 12/10/4 5/3/4 11/11/4
f 9/12/5 11/11/5 6/8/5
f 8/13/6 13/9/6 7/5/6
f 10/1/1 4/14/1 3/2/1
f 2/4/2 8/13/2 7/5/2
f 14/7/3 9/12/3 6/8/3
f 12/10/4 10/1/4 5/3/4
f 9/12/5 12/10/5 11/11/5
f 8/13/6 14/7/6 13/9/6
