# Blender v2.78 (sub 0) OBJ File: 'igs_warehouse_1.blend'
# www.blender.org
v 0.475000 0.475000 0.025000
v 0.475000 -0.475000 0.025000
v -0.475000 -0.475000 0.025000
v -0.475000 0.475000 0.025000
v 0.475000 0.475000 0.485322
v 0.475000 -0.475000 0.485322
v -0.475000 -0.475000 0.485322
v -0.475000 0.475000 0.485322
v 0.475000 -0.000000 0.025000
v -0.475000 0.000000 0.025000
v 0.475000 -0.000000 0.485322
v -0.475000 0.000000 0.485322
v 0.475000 -0.000000 0.546144
v -0.475000 0.000000 0.546144
v 0.475000 0.475000 0.500610
v 0.475000 -0.475000 0.500610
v -0.475000 -0.475000 0.500610
v -0.475000 0.475000 0.500610
v 0.475000 -0.000000 0.561431
v -0.475000 0.000000 0.561431
v 0.475000 0.485787 0.485322
v 0.475000 -0.485788 0.485322
v -0.475000 -0.485787 0.485322
v -0.475000 0.485787 0.485322
v 0.475000 0.485787 0.500610
v 0.475000 -0.485788 0.500610
v -0.475000 -0.485787 0.500610
v -0.475000 0.485787 0.500610
v 0.484229 0.475000 0.485322
v 0.484228 -0.000000 0.546144
v 0.484228 -0.475000 0.485322
v -0.484228 0.475000 0.485322
v -0.484228 0.000000 0.546144
v -0.484228 -0.475000 0.485322
v 0.484229 0.475000 0.500610
v 0.484228 -0.000000 0.561431
v 0.484228 -0.475000 0.500610
v -0.484228 0.475000 0.500610
v -0.484228 0.000000 0.561431
v -0.484228 -0.475000 0.500610
v -0.484228 0.485787 0.500610
v -0.484228 0.485787 0.485322
v 0.484229 0.485787 0.485322
v 0.484229 0.485787 0.500610
v 0.484228 -0.485788 0.485322
v 0.484228 -0.485788 0.500610
v -0.484228 -0.485787 0.500610
v -0.484228 -0.485787 0.485322
v 0.475000 -0.371094 0.025000
v 0.475000 -0.371094 0.378920
v 0.475000 -0.103906 0.025000
v 0.475000 -0.103906 0.378920
v 0.475000 0.371094 0.025000
v 0.475000 0.371094 0.378920
v 0.475000 0.103906 0.025000
v 0.475000 0.103906 0.378920
v 0.466055 -0.371094 0.025000
v 0.466055 -0.371094 0.378920
v 0.466055 -0.103906 0.025000
v 0.466055 -0.103906 0.378920
v 0.466055 0.371094 0.025000
v 0.466055 0.371094 0.378920
v 0.466055 0.103906 0.025000
v 0.466055 0.103906 0.378920
v 0.237500 0.475000 0.260898
v -0.237500 0.475000 0.260898
v 0.237500 0.475000 0.375979
v -0.237500 0.475000 0.375979
v 0.237500 0.469802 0.260898
v -0.237500 0.469802 0.260898
v 0.237500 0.469802 0.375979
v -0.237500 0.469802 0.375979
v 0.500195 0.500195 0.022686
v 0.500195 -0.500195 0.022686
v -0.500195 -0.500195 0.022686
v -0.500195 0.500195 0.022686
v 0.500195 -0.000000 0.022686
v -0.500195 0.000000 0.022686
v 0.500195 -0.390778 0.022686
v 0.500195 -0.109418 0.022686
v 0.500195 0.390777 0.022686
v 0.500195 0.109418 0.022686
v 0.500195 0.500195 -0.000600
v 0.500195 -0.500195 -0.000600
v -0.500195 -0.500195 -0.000600
v -0.500195 0.500195 -0.000600
v 0.500195 -0.000000 -0.000600
v -0.500195 0.000000 -0.000600
v 0.500195 -0.390778 -0.000600
v 0.500195 -0.109418 -0.000600
v 0.500195 0.390777 -0.000600
v 0.500195 0.109418 -0.000600
vt 0.7384 0.8050
vt 0.7384 0.8370
vt 0.4890 0.8050
vt 0.7384 0.2719
vt 0.5427 0.2158
vt 0.6836 0.2158
vt 0.9897 0.7901
vt 0.4884 0.5471
vt 0.9897 0.5471
vt 0.7391 0.5471
vt 0.9897 0.7901
vt 0.7391 0.7901
vt 0.4877 0.2899
vt 0.8633 0.4143
vt 0.6129 0.4143
vt 0.4884 0.5471
vt 0.4884 0.7901
vt 0.9888 0.2719
vt 0.7931 0.2158
vt 0.9340 0.2158
vt 0.9878 0.8050
vt 0.0000 0.0000
vt 0.0000 0.0000
vt 0.0000 0.0000
vt 0.4890 0.8050
vt 0.7384 0.8050
vt 0.7384 0.8369
vt 0.9877 0.8050
vt 0.4591 0.5208
vt 0.4634 0.5259
vt 0.4591 0.5259
vt 0.4591 0.9679
vt 0.4634 0.7469
vt 0.4591 0.7469
vt 0.4591 0.7469
vt 0.0170 0.5259
vt 0.0170 0.9679
vt 0.0170 0.7469
vt 0.4591 0.5259
vt 0.0170 0.5208
vt 0.0170 0.5259
vt 0.4591 0.9730
vt 0.4634 0.9730
vt 0.4591 0.9730
vt 0.4634 0.9679
vt 0.4591 0.9679
vt 0.0127 0.5208
vt 0.0170 0.5208
vt 0.4591 0.5208
vt 0.0170 0.9730
vt 0.0127 0.9730
vt 0.0170 0.9730
vt 0.0127 0.5259
vt 0.0170 0.9679
vt 0.4634 0.5208
vt 0.4634 0.7469
vt 0.0127 0.7469
vt 0.0127 0.9679
vt 0.0127 0.9679
vt 0.0127 0.5259
vt 0.0127 0.7469
vt 0.4634 0.5259
vt 0.4634 0.9679
vt 0.4634 0.9730
vt 0.0127 0.9730
vt 0.4634 0.5208
vt 0.0127 0.5208
vt 0.0170 0.7469
vt 0.7931 0.0292
vt 0.7931 0.2158
vt 0.7384 0.0292
vt 0.6836 0.0292
vt 0.4879 0.0292
vt 0.4879 0.2719
vt 0.6836 0.2158
vt 0.9888 0.0292
vt 0.9340 0.0292
vt 0.5427 0.0292
vt 0.6836 0.0292
vt 0.9340 0.2158
vt 0.9340 0.0292
vt 0.4643 0.2110
vt 0.4601 0.0858
vt 0.4643 0.0858
vt 0.4643 0.4335
vt 0.4601 0.3084
vt 0.4643 0.3084
vt 0.5427 0.0292
vt 0.5427 0.2158
vt 0.8633 0.4749
vt 0.8633 0.4143
vt 0.4877 0.5326
vt 0.6129 0.4749
vt 0.9885 0.5326
vt 0.9885 0.2899
vt 0.6129 0.4143
vt 0.8633 0.4749
vt 0.6129 0.4749
vt 0.0192 0.0372
vt 0.4761 0.0254
vt 0.4643 0.0372
vt 0.4761 0.2597
vt 0.4761 0.3109
vt 0.4643 0.4822
vt 0.0074 0.4940
vt 0.0192 0.4822
vt 0.4761 0.4427
vt 0.4643 0.2597
vt 0.0074 0.2597
vt 0.0192 0.2597
vt 0.0074 0.0254
vt 0.4761 0.2084
vt 0.4761 0.0766
vt 0.4761 0.4940
vt 0.4761 0.4427
vt 0.4761 0.2084
vt 0.4761 0.0254
vt 0.4761 0.4940
vt 0.4761 0.2597
vt 0.0074 0.2597
vt 0.4761 0.3109
vt 0.4761 0.0766
vt 0.0074 0.0254
vt 0.0074 0.4940
vt 0.4884 0.7901
vt 0.9897 0.5471
vt 0.0000 0.0000
vt 0.7931 0.0292
vt 0.4601 0.2110
vt 0.4601 0.4335
vn 1.0000 -0.0000 0.0000
vn -0.0000 -1.0000 -0.0000
vn -1.0000 0.0000 -0.0000
vn 0.0000 1.0000 0.0000
vn 0.0000 0.0000 1.0000
vn 0.0000 -0.1270 -0.9919
vn -0.0000 -0.1270 0.9919
vn 0.0000 0.1270 0.9919
vn 0.0000 0.0000 -1.0000
vn 0.0000 0.1270 -0.9919
vn -0.0000 -0.0915 0.9958
vn 0.0915 0.0000 0.9958
vn 0.0000 0.0915 0.9958
vn -0.0915 0.0000 0.9958
vn -0.5773 0.5773 0.5773
vn 0.5773 0.5773 -0.5773
vn -0.5773 0.5773 -0.5773
vn 0.5773 0.5773 0.5773
s off
f 11/1/1 13/2/1 6/3/1
f 11/4/1 50/5/1 52/6/1
f 6/7/2 3/8/2 2/9/2
f 12/10/3 4/11/3 10/12/3
f 1/13/4 66/14/4 65/15/4
f 7/16/3 10/12/3 3/17/3
f 5/18/1 56/19/1 54/20/1
f 11/1/1 5/21/1 13/2/1
f 12/22/4 13/23/4 11/24/4
f 8/25/3 12/26/3 14/27/3
f 14/27/3 12/26/3 7/28/3
f 26/29/5 37/30/5 16/31/5
f 5/32/6 30/33/6 13/34/6
f 19/35/7 17/36/7 16/31/7
f 19/35/8 18/37/8 20/38/8
f 6/39/9 23/40/9 7/41/9
f 25/42/4 43/43/4 21/44/4
f 19/35/8 35/45/8 15/46/8
f 17/36/5 47/47/5 27/48/5
f 22/49/2 27/48/2 23/40/2
f 24/50/4 25/42/4 21/44/4
f 24/50/4 41/51/4 28/52/4
f 17/36/5 26/29/5 16/31/5
f 23/40/9 34/53/9 7/41/9
f 8/54/9 21/44/9 5/32/9
f 6/39/9 45/55/9 22/49/9
f 15/46/5 28/52/5 18/37/5
f 30/33/1 35/45/1 36/56/1
f 33/57/3 38/58/3 32/59/3
f 33/57/3 40/60/3 39/61/3
f 30/33/1 37/30/1 31/62/1
f 29/63/1 44/64/1 35/45/1
f 34/53/3 47/47/3 40/60/3
f 38/58/3 42/65/3 32/59/3
f 37/30/1 45/55/1 31/62/1
f 16/31/7 36/56/7 19/35/7
f 22/49/2 46/66/2 26/29/2
f 13/34/10 31/62/10 6/39/10
f 28/52/5 38/58/5 18/37/5
f 18/37/8 39/61/8 20/38/8
f 27/48/2 48/67/2 23/40/2
f 14/68/6 32/59/6 8/54/6
f 8/54/9 42/65/9 24/50/9
f 20/38/7 40/60/7 17/36/7
f 21/44/9 29/63/9 5/32/9
f 7/41/10 33/57/10 14/68/10
f 15/46/5 44/64/5 25/42/5
f 56/19/4 63/69/4 64/70/4
f 9/71/1 52/6/1 51/72/1
f 2/73/1 50/5/1 6/74/1
f 50/5/9 60/75/9 52/6/9
f 9/71/1 56/19/1 11/4/1
f 1/76/1 54/20/1 53/77/1
f 60/75/1 57/78/1 59/79/1
f 62/80/1 63/69/1 61/81/1
f 51/82/5 57/83/5 49/84/5
f 53/85/5 63/86/5 55/87/5
f 52/6/2 59/79/2 51/72/2
f 49/88/4 58/89/4 50/5/4
f 56/19/9 62/80/9 54/20/9
f 54/20/2 61/81/2 53/77/2
f 68/90/1 70/91/1 66/14/1
f 5/92/4 65/15/4 67/93/4
f 5/92/4 68/90/4 8/94/4
f 8/94/4 66/14/4 4/95/4
f 66/14/5 69/96/5 65/15/5
f 67/93/9 72/97/9 68/90/9
f 67/93/3 69/96/3 71/98/3
f 3/99/11 74/100/11 2/101/11
f 55/87/12 77/102/12 82/103/12
f 1/104/13 76/105/13 4/106/13
f 53/85/12 82/103/12 81/107/12
f 51/82/12 77/102/12 9/108/12
f 4/106/14 78/109/14 10/110/14
f 3/99/14 78/109/14 75/111/14
f 49/84/12 80/112/12 51/82/12
f 2/101/12 79/113/12 49/84/12
f 1/104/12 81/107/12 73/114/12
f 82/103/1 91/115/1 81/107/1
f 79/113/1 90/116/1 80/112/1
f 75/111/2 84/117/2 74/100/2
f 81/107/1 83/118/1 73/114/1
f 80/112/1 87/119/1 77/102/1
f 76/105/3 88/120/3 78/109/3
f 77/102/1 92/121/1 82/103/1
f 74/100/1 89/122/1 79/113/1
f 78/109/3 85/123/3 75/111/3
f 73/114/4 86/124/4 76/105/4
f 11/4/1 6/74/1 50/5/1
f 6/7/2 7/125/2 3/8/2
f 12/10/3 8/126/3 4/11/3
f 1/13/4 4/95/4 66/14/4
f 7/16/3 12/10/3 10/12/3
f 5/18/1 11/4/1 56/19/1
f 12/22/4 14/127/4 13/23/4
f 26/29/5 46/66/5 37/30/5
f 5/32/6 29/63/6 30/33/6
f 19/35/7 20/38/7 17/36/7
f 19/35/8 15/46/8 18/37/8
f 6/39/9 22/49/9 23/40/9
f 25/42/4 44/64/4 43/43/4
f 19/35/8 36/56/8 35/45/8
f 17/36/5 40/60/5 47/47/5
f 22/49/2 26/29/2 27/48/2
f 24/50/4 28/52/4 25/42/4
f 24/50/4 42/65/4 41/51/4
f 17/36/5 27/48/5 26/29/5
f 23/40/9 48/67/9 34/53/9
f 8/54/9 24/50/9 21/44/9
f 6/39/9 31/62/9 45/55/9
f 15/46/5 25/42/5 28/52/5
f 30/33/1 29/63/1 35/45/1
f 33/57/3 39/61/3 38/58/3
f 33/57/3 34/53/3 40/60/3
f 30/33/1 36/56/1 37/30/1
f 29/63/1 43/43/1 44/64/1
f 34/53/3 48/67/3 47/47/3
f 38/58/3 41/51/3 42/65/3
f 37/30/1 46/66/1 45/55/1
f 16/31/7 37/30/7 36/56/7
f 22/49/2 45/55/2 46/66/2
f 13/34/10 30/33/10 31/62/10
f 28/52/5 41/51/5 38/58/5
f 18/37/8 38/58/8 39/61/8
f 27/48/2 47/47/2 48/67/2
f 14/68/6 33/57/6 32/59/6
f 8/54/9 32/59/9 42/65/9
f 20/38/7 39/61/7 40/60/7
f 21/44/9 43/43/9 29/63/9
f 7/41/10 34/53/10 33/57/10
f 15/46/5 35/45/5 44/64/5
f 56/19/4 55/128/4 63/69/4
f 9/71/1 11/4/1 52/6/1
f 2/73/1 49/88/1 50/5/1
f 50/5/9 58/89/9 60/75/9
f 9/71/1 55/128/1 56/19/1
f 1/76/1 5/18/1 54/20/1
f 60/75/1 58/89/1 57/78/1
f 62/80/1 64/70/1 63/69/1
f 51/82/5 59/129/5 57/83/5
f 53/85/5 61/130/5 63/86/5
f 52/6/2 60/75/2 59/79/2
f 49/88/4 57/78/4 58/89/4
f 56/19/9 64/70/9 62/80/9
f 54/20/2 62/80/2 61/81/2
f 68/90/1 72/97/1 70/91/1
f 5/92/4 1/13/4 65/15/4
f 5/92/4 67/93/4 68/90/4
f 8/94/4 68/90/4 66/14/4
f 66/14/5 70/91/5 69/96/5
f 67/93/9 71/98/9 72/97/9
f 67/93/3 65/15/3 69/96/3
f 3/99/11 75/111/11 74/100/11
f 55/87/12 9/108/12 77/102/12
f 1/104/13 73/114/13 76/105/13
f 53/85/12 55/87/12 82/103/12
f 51/82/12 80/112/12 77/102/12
f 4/106/14 76/105/14 78/109/14
f 3/99/14 10/110/14 78/109/14
f 49/84/12 79/113/12 80/112/12
f 2/101/12 74/100/12 79/113/12
f 1/104/12 53/85/12 81/107/12
f 82/103/1 92/121/1 91/115/1
f 79/113/1 89/122/1 90/116/1
f 75/111/2 85/123/2 84/117/2
f 81/107/1 91/115/1 83/118/1
f 80/112/1 90/116/1 87/119/1
f 76/105/3 86/124/3 88/120/3
f 77/102/1 87/119/1 92/121/1
f 74/100/1 84/117/1 89/122/1
f 78/109/3 88/120/3 85/123/3
f 73/114/4 83/118/4 86/124/4
s 1
f 69/96/15 72/97/16 71/98/17
f 69/96/15 70/91/18 72/97/16
