# Blender v2.78 (sub 0) OBJ File: 'igs_warehouse_1.blend'
# www.blender.org
v -0.116540 -0.100000 0.072265
v -0.116540 -0.100000 0.272265
v -0.116540 0.100000 0.072265
v -0.116540 0.100000 0.272265
v 0.283460 -0.100000 0.072265
v 0.283460 -0.100000 0.272265
v 0.283460 0.100000 0.072265
v 0.283460 0.100000 0.272265
v -0.099915 0.100000 0.072265
v -0.099915 0.100000 0.272265
v -0.099915 -0.100000 0.072265
v -0.099915 -0.100000 0.272265
v -0.106023 -0.100000 0.062492
v -0.106023 0.100000 0.062492
v -0.099915 0.100000 0.062492
v -0.099915 -0.100000 0.062492
v -0.121163 -0.100000 0.072265
v -0.121163 0.100000 0.072265
v -0.121163 -0.100000 0.062492
v -0.121163 0.100000 0.062492
v -0.105276 -0.100000 0.037482
v -0.105276 0.100000 0.037482
v -0.099887 0.100000 0.037482
v -0.099887 -0.100000 0.037482
v 0.283895 -0.047701 0.072265
v 0.283895 0.047701 0.072265
v -0.061578 0.047701 0.072265
v -0.061578 -0.047701 0.072265
v 0.023884 -0.047701 0.026387
v 0.023884 0.047701 0.026387
v -0.028765 0.047701 0.026387
v -0.028765 -0.047701 0.026387
v 0.052390 -0.047701 0.052656
v 0.052390 0.047701 0.052656
v 0.283013 -0.047701 0.052656
v 0.283013 0.047701 0.052656
v 0.365914 -0.047701 0.072265
v 0.365914 0.047701 0.072265
v 0.365032 -0.047701 0.052656
v 0.365032 0.047701 0.052656
v 0.347012 -0.081961 0.070586
v 0.283114 -0.069514 0.216434
v 0.347012 0.080669 0.070586
v 0.283114 0.069815 0.216434
v 0.430168 -0.081961 0.033477
v 0.403191 -0.070756 0.216053
v 0.430168 0.079626 0.033477
v 0.403191 0.071338 0.216053
v 0.283114 -0.078046 0.133477
v 0.283114 0.077926 0.133477
v 0.430168 0.079626 0.133477
v 0.430168 -0.081961 0.133477
v 0.412850 0.081961 0.033477
v 0.382495 0.073430 0.218895
v 0.412850 -0.081961 0.033477
v 0.382495 -0.073430 0.218895
v 0.382495 -0.081961 0.133477
v 0.382495 0.081961 0.133477
v 0.370373 0.081961 0.033477
v 0.289937 -0.073430 0.218895
v 0.289937 -0.081961 0.133477
v 0.289937 0.073430 0.218895
v 0.370373 -0.081961 0.033477
v 0.289937 0.081961 0.133477
v 0.283351 0.080157 0.073230
v 0.430168 0.079626 0.058261
v 0.430168 -0.081961 0.058261
v 0.283351 -0.081961 0.073230
v 0.382495 0.081961 0.058261
v 0.382495 -0.081961 0.058261
v 0.408701 0.081961 0.012849
v 0.408701 -0.081961 0.012849
v 0.376488 0.081961 0.012849
v 0.376488 -0.081961 0.012849
v 0.437133 -0.075591 0.033291
v 0.437133 0.073256 0.033291
v 0.437133 0.073256 0.056747
v 0.437133 -0.075591 0.056747
v 0.412850 0.071780 0.033477
v 0.412850 -0.071780 0.033477
v 0.370373 0.071780 0.033477
v 0.370373 -0.071780 0.033477
v 0.408701 0.071780 0.012849
v 0.408701 -0.071780 0.012849
v 0.376488 0.071780 0.012849
v 0.376488 -0.071780 0.012849
v 0.430168 0.071547 0.122755
v 0.430168 -0.073882 0.122755
v 0.430168 0.071547 0.101929
v 0.430168 -0.073882 0.101929
v 0.428777 0.070937 0.121913
v 0.428777 -0.073272 0.121913
v 0.428777 0.070937 0.102771
v 0.428777 -0.073272 0.102771
v 0.403774 0.068207 0.213467
v 0.403774 -0.067752 0.213467
v 0.429585 0.076138 0.136063
v 0.429585 -0.078472 0.136063
v 0.403149 0.067129 0.212590
v 0.403149 -0.066717 0.212590
v 0.428560 0.074936 0.136390
v 0.428560 -0.077271 0.136390
v 0.380691 0.073430 0.215647
v 0.393516 0.071338 0.213021
v 0.418323 0.079626 0.136725
v 0.393516 -0.070756 0.213021
v 0.418323 -0.081961 0.136725
v 0.380691 0.081961 0.136725
v 0.341444 0.074230 0.215647
v 0.380691 -0.073430 0.215647
v 0.380691 -0.081961 0.136725
v 0.341444 0.081961 0.136725
v 0.341444 -0.074230 0.215647
v 0.341444 -0.081961 0.136725
v 0.380669 0.072188 0.214735
v 0.393152 0.070132 0.212170
v 0.417298 0.078280 0.137637
v 0.393152 -0.069560 0.212170
v 0.417298 -0.080576 0.137637
v 0.380669 0.080576 0.137637
v 0.342469 0.072976 0.214735
v 0.380669 -0.072188 0.214735
v 0.380669 -0.080576 0.137637
v 0.342469 0.080576 0.137637
v 0.342469 -0.072976 0.214735
v 0.342469 -0.080576 0.137637
v 0.413645 0.092715 0.165738
v 0.423510 0.094672 0.137205
v 0.416200 0.075192 0.166554
v 0.426258 0.078679 0.135513
v 0.409697 0.092715 0.165738
v 0.419820 0.094672 0.137205
v 0.409963 0.075192 0.166554
v 0.420022 0.078679 0.135513
v 0.413645 -0.092715 0.165738
v 0.423510 -0.094672 0.137205
v 0.416200 -0.075192 0.166554
v 0.426258 -0.078679 0.135513
v 0.409697 -0.092715 0.165738
v 0.419820 -0.094672 0.137205
v 0.409963 -0.075192 0.166554
v 0.420022 -0.078679 0.135513
vt 0.9915 0.9799
vt 0.7305 0.7188
vt 0.9915 0.7188
vt 0.9748 0.2243
vt 0.5604 0.0082
vt 0.9748 0.0082
vt 0.1902 0.4448
vt 0.1902 0.5279
vt 0.1902 0.4381
vt 0.9748 0.4439
vt 0.9927 0.6601
vt 0.9748 0.6601
vt 0.2495 0.4443
vt 0.1902 0.0664
vt 0.2495 0.0244
vt 0.9927 0.2270
vt 0.9748 0.4431
vt 0.9748 0.2270
vt 0.5604 0.4431
vt 0.5604 0.2270
vt 0.3291 0.6347
vt 0.5481 0.6240
vt 0.5481 0.6347
vt 0.5604 0.4439
vt 0.5604 0.6601
vt 0.9927 0.2243
vt 0.9927 0.0082
vt 0.5481 0.5966
vt 0.5481 0.6240
vt 0.5481 0.6347
vt 0.5481 0.6240
vt 0.5481 0.6347
vt 0.3291 0.6240
vt 0.3291 0.6240
vt 0.7305 0.7188
vt 0.9915 0.7060
vt 0.9915 0.7188
vt 0.9915 0.7060
vt 0.7305 0.7060
vt 0.7305 0.7060
vt 0.3291 0.6347
vt 0.3291 0.6240
vt 0.0000 0.0000
vt 0.0000 0.0000
vt 0.0000 0.0000
vt 0.3291 0.5966
vt 0.3291 0.5966
vt 0.9915 0.6734
vt 0.5481 0.5966
vt 0.0227 0.4443
vt 0.0820 0.0664
vt 0.0820 0.4448
vt 0.0227 0.0244
vt 0.0820 0.5279
vt 0.0820 0.5346
vt 0.0820 0.0889
vt 0.1902 0.1855
vt 0.0820 0.4381
vt 0.0820 0.1855
vt 0.1902 0.1466
vt 0.0820 0.1466
vt 0.1902 0.0889
vt 0.0000 0.0000
vt 0.0000 0.0000
vt 0.0000 0.0000
vt 0.0000 0.0000
vt 0.4687 0.6742
vt 0.5355 0.6742
vt 0.4687 0.9804
vt 0.7242 0.6742
vt 0.7242 0.9804
vt 0.6574 0.6742
vt 0.2650 0.8352
vt 0.2472 0.7423
vt 0.2334 0.7384
vt 0.0524 0.8392
vt 0.0432 0.7438
vt 0.0560 0.8361
vt 0.3976 0.7384
vt 0.4056 0.8356
vt 0.4056 0.7384
vt 0.0518 0.5571
vt 0.0398 0.5950
vt 0.0398 0.5571
vt 0.2249 0.9801
vt 0.0551 0.9882
vt 0.0504 0.9801
vt 0.2317 0.7407
vt 0.2220 0.7031
vt 0.2317 0.6511
vt 0.2889 0.7381
vt 0.2330 0.6499
vt 0.2889 0.6499
vt 0.2892 0.6503
vt 0.2334 0.6503
vt 0.2249 0.8701
vt 0.0536 0.8455
vt 0.2225 0.8455
vt 0.2208 0.5950
vt 0.2327 0.5571
vt 0.2327 0.5950
vt 0.2892 0.8385
vt 0.3373 0.8347
vt 0.2913 0.8347
vt 0.2469 0.7419
vt 0.2330 0.7381
vt 0.4055 0.8355
vt 0.3975 0.7381
vt 0.4055 0.7381
vt 0.2208 0.5571
vt 0.2208 0.5999
vt 0.2208 0.5499
vt 0.0504 0.8701
vt 0.2647 0.8350
vt 0.2760 0.8315
vt 0.2536 0.6213
vt 0.2334 0.6213
vt 0.0398 0.5224
vt 0.2306 0.4475
vt 0.2312 0.5224
vt 0.2533 0.6208
vt 0.2330 0.6208
vt 0.2317 0.6215
vt 0.2241 0.6493
vt 0.2241 0.6213
vt 0.0000 0.0000
vt 0.0000 0.0000
vt 0.0000 0.0000
vt 0.0518 0.5950
vt 0.0398 0.5999
vt 0.0518 0.5999
vt 0.0518 0.5499
vt 0.2327 0.5499
vt 0.3032 0.6208
vt 0.3306 0.6643
vt 0.4053 0.6674
vt 0.4053 0.6679
vt 0.3308 0.6648
vt 0.2892 0.7384
vt 0.3034 0.6213
vt 0.0466 0.6213
vt 0.0390 0.6215
vt 0.0466 0.6493
vt 0.0390 0.6511
vt 0.0398 0.5499
vt 0.2327 0.5999
vt 0.0000 0.0000
vt 0.0000 0.0000
vt 0.0000 0.0000
vt 0.2300 0.6203
vt 0.0398 0.6203
vt 0.2960 0.5966
vt 0.2962 0.5972
vt 0.0487 0.7280
vt 0.0494 0.7041
vt 0.0494 0.7270
vt 0.0390 0.7407
vt 0.2220 0.7280
vt 0.0487 0.7031
vt 0.2213 0.7270
vt 0.2213 0.7041
vt 0.2275 0.7438
vt 0.0446 0.7442
vt 0.2218 0.8392
vt 0.2180 0.8361
vt 0.2261 0.7442
vt 0.0572 0.8350
vt 0.2168 0.8350
vt 0.2763 0.8316
vt 0.2913 0.8336
vt 0.2767 0.8306
vt 0.2481 0.7430
vt 0.2764 0.8305
vt 0.2913 0.7423
vt 0.3361 0.7433
vt 0.3373 0.7423
vt 0.2911 0.8345
vt 0.3359 0.8335
vt 0.3371 0.8345
vt 0.2889 0.8384
vt 0.3976 0.8385
vt 0.3371 0.7419
vt 0.3975 0.8384
vt 0.2911 0.7419
vt 0.3359 0.7430
vt 0.2484 0.7433
vt 0.2913 0.7433
vt 0.3361 0.8336
vt 0.2911 0.8335
vt 0.2911 0.7430
vt 0.0136 0.7874
vt 0.0380 0.7886
vt 0.0109 0.7478
vt 0.0331 0.7455
vt 0.0109 0.7478
vt 0.0136 0.7874
vt 0.0380 0.7886
vt 0.0331 0.7455
vt 0.0138 0.7875
vt 0.0110 0.7476
vt 0.0383 0.7886
vt 0.0334 0.7452
vt 0.0110 0.7476
vt 0.0138 0.7875
vt 0.0383 0.7886
vt 0.0334 0.7452
vt 0.7305 0.9799
vt 0.5604 0.2243
vt 0.1902 0.5346
vt 0.9927 0.4439
vt 0.9927 0.4431
vt 0.3291 0.6347
vt 0.0000 0.0000
vt 0.7305 0.6734
vt 0.0000 0.0000
vt 0.0000 0.0000
vt 0.2206 0.9882
vt 0.0398 0.4475
vt 0.0000 0.0000
vt 0.0000 0.0000
vt 0.2582 0.5966
vt 0.2585 0.5972
vt 0.0171 0.8408
vt 0.0141 0.7976
vt 0.0437 0.8420
vt 0.0384 0.7950
vt 0.0174 0.8407
vt 0.0440 0.8419
vt 0.0145 0.7975
vt 0.0387 0.7950
vn -1.0000 0.0000 0.0000
vn 0.0000 1.0000 0.0000
vn 0.0000 -1.0000 0.0000
vn 0.0000 0.0000 -1.0000
vn 0.0000 0.0000 1.0000
vn 1.0000 0.0000 0.0000
vn -0.9996 0.0000 -0.0299
vn 1.0000 0.0000 0.0011
vn -0.8134 0.0000 -0.5817
vn 0.6777 0.0000 -0.7354
vn 0.9990 0.0000 -0.0449
vn 1.0000 -0.0083 0.0000
vn 1.0000 0.0083 0.0000
vn 1.0000 0.0000 0.0022
vn 0.0404 -0.9883 0.1473
vn 0.9489 0.0790 0.3055
vn -0.4957 -0.8639 0.0888
vn -0.3393 0.0000 0.9407
vn 0.0489 0.9988 0.0000
vn 0.1360 0.0000 0.9907
vn 0.0204 -0.9997 -0.0113
vn 0.0482 0.9833 0.1756
vn -0.5072 0.8577 0.0839
vn -0.0307 0.9947 0.0981
vn -0.0415 0.0000 -0.9991
vn 0.1336 0.9910 0.0000
vn 0.6749 0.7379 0.0000
vn 0.9804 0.0000 -0.1972
vn -0.9588 0.0000 -0.2842
vn -0.0311 0.9994 0.0152
vn -0.0364 0.9993 0.0000
vn -0.5088 0.8604 0.0298
vn -0.0093 0.9995 -0.0289
vn 0.0000 0.9998 -0.0205
vn -0.4970 -0.8661 0.0543
vn 0.6749 -0.7379 0.0000
vn -0.0267 0.0000 -0.9996
vn 0.2125 0.0000 0.9772
vn -0.8463 0.0000 -0.5327
vn 0.4014 0.9159 0.0000
vn 0.5179 0.0000 -0.8554
vn 0.5179 0.0000 0.8554
vn 0.4014 -0.9159 0.0000
vn 0.3033 0.0000 0.9529
vn 0.9454 0.0769 0.3166
vn 0.9756 0.0000 0.2197
vn 0.7715 -0.6055 0.1952
vn 0.7719 0.6119 0.1726
vn 0.8145 0.0000 -0.5801
vn -0.0423 -0.5876 -0.8080
vn -0.8720 0.4290 -0.2356
vn 0.0000 -0.5496 0.8354
vn 0.0121 0.5941 -0.8043
vn 0.1444 0.9863 -0.0802
vn 0.0860 -0.9577 -0.2745
vn -0.0092 -0.9950 0.0994
vn -0.0061 0.9952 0.0975
vn 0.0000 0.9709 0.2393
vn 0.7830 0.6190 0.0606
vn -0.8463 -0.4925 -0.2029
vn 0.7940 -0.6050 0.0596
vn 0.0337 0.5427 0.8393
vn 0.0122 -0.5917 -0.8061
vn -0.0681 0.5913 -0.8036
vn 0.0000 0.5496 0.8354
vn 0.9310 0.1512 0.3323
vn 0.9392 0.1277 0.3187
vn 0.0000 0.9977 0.0684
vn 0.0000 0.0465 0.9989
vn 0.0000 0.1052 -0.9945
vn 0.9310 -0.1512 0.3323
vn 0.9392 -0.1277 0.3187
vn 0.0000 -0.9977 0.0684
vn 0.0000 -0.0465 0.9989
vn 0.0000 -0.1052 -0.9945
vn -0.0414 -0.9904 0.1320
vn 0.9444 -0.0790 0.3192
vn -0.5188 -0.8507 0.0850
vn 0.0000 -0.9709 0.2393
vn 0.0619 0.9975 0.0344
vn -0.4906 0.8671 0.0866
vn 0.0300 0.9935 0.1095
vn 0.0488 0.9970 0.0598
vn 0.9481 -0.0782 0.3082
vn 0.7716 -0.6054 0.1953
vn 0.7718 0.6120 0.1726
vn -0.0414 -0.5918 -0.8050
vn -0.8423 0.4919 -0.2204
vn 0.0122 0.5917 -0.8061
vn 0.0684 0.9735 -0.2183
vn 0.1830 -0.9778 -0.1017
vn -0.0061 -0.9952 0.0975
vn -0.0092 0.9950 0.0994
vn 0.0204 0.9997 -0.0113
vn 0.7940 0.6050 0.0596
vn -0.8779 -0.4244 -0.2217
vn 0.7830 -0.6190 0.0606
vn 0.0344 0.5489 0.8352
vn 0.0121 -0.5941 -0.8043
vn -0.0684 0.5888 -0.8053
vn 0.7375 -0.2469 0.6286
vn 0.9693 0.2268 -0.0948
vn 0.7403 0.2544 0.6223
vn 0.0318 0.8488 0.5276
vn -0.3446 0.8733 -0.3443
vn -0.4308 0.8391 0.3322
vn -0.3317 -0.8805 -0.3386
vn 0.0083 -0.8496 0.5273
vn -0.4571 -0.8213 0.3412
vn 0.3551 0.8798 -0.3160
vn 0.3453 0.8367 0.4250
vn 0.3551 -0.8798 -0.3160
vn 0.3453 -0.8367 0.4250
vn -0.6909 0.5480 0.4715
vn -0.4745 0.6455 -0.5984
vn -0.7688 0.0308 0.6388
vn -0.5869 0.0779 -0.8059
vn -0.6909 -0.5480 0.4715
vn -0.7688 -0.0308 0.6388
vn -0.4745 -0.6455 -0.5984
vn -0.5869 -0.0779 -0.8059
vn 0.9698 -0.2265 -0.0903
vn 0.0333 0.8982 -0.4384
vn 0.0526 -0.8957 -0.4415
s off
f 2/1/1 3/2/1 1/3/1
f 10/4/2 7/5/2 9/6/2
f 26/7/2 40/8/2 36/9/2
f 12/10/3 1/11/3 11/12/3
f 7/13/4 27/14/4 9/15/4
f 4/16/5 12/17/5 10/18/5
f 10/18/5 6/19/5 8/20/5
f 11/21/6 15/22/6 9/23/6
f 6/24/3 11/12/3 5/25/3
f 4/26/2 9/6/2 3/27/2
f 15/22/2 22/28/2 14/29/2
f 9/23/2 14/29/2 3/30/2
f 3/30/2 20/31/2 18/32/2
f 11/21/3 13/33/3 16/34/3
f 18/35/1 19/36/1 17/37/1
f 3/2/5 17/37/5 1/3/5
f 13/38/4 20/39/4 14/40/4
f 1/41/3 19/42/3 13/33/3
f 23/43/4 21/44/4 22/45/4
f 16/34/3 21/46/3 24/47/3
f 14/40/7 21/48/7 13/38/7
f 16/34/8 23/49/8 15/22/8
f 5/50/4 28/51/4 25/52/4
f 9/15/4 28/51/4 11/53/4
f 25/52/3 39/54/3 37/55/3
f 27/14/9 32/56/9 28/51/9
f 34/57/4 35/58/4 33/59/4
f 32/56/4 30/60/4 29/61/4
f 30/60/10 33/59/10 29/61/10
f 26/7/2 36/9/2 27/14/2
f 36/9/2 34/57/2 27/14/2
f 27/14/2 30/60/2 31/62/2
f 35/58/3 25/52/3 28/51/3
f 35/58/3 28/51/3 33/59/3
f 29/61/3 28/51/3 32/56/3
f 36/9/4 39/54/4 35/58/4
f 37/63/11 40/64/11 38/65/11
f 38/65/5 25/66/5 37/63/5
f 5/67/12 25/68/12 6/69/12
f 7/70/13 8/71/13 26/72/13
f 6/69/14 26/72/14 8/71/14
f 46/73/15 107/74/15 52/75/15
f 46/76/16 98/77/16 96/78/16
f 61/79/17 42/80/17 49/81/17
f 86/82/4 72/83/4 74/84/4
f 62/85/18 42/86/18 60/87/18
f 51/88/6 89/89/6 66/90/6
f 58/91/19 66/92/19 69/93/19
f 52/75/3 70/94/3 67/95/3
f 54/96/20 46/97/20 48/98/20
f 83/99/4 73/100/4 71/101/4
f 56/102/21 113/103/21 110/104/21
f 58/91/22 105/105/22 51/106/22
f 44/107/23 64/108/23 50/109/23
f 85/110/3 79/111/3 81/112/3
f 62/85/5 56/113/5 54/96/5
f 48/114/24 105/105/24 104/115/24
f 67/95/3 55/116/3 45/117/3
f 41/118/25 65/119/25 43/120/25
f 53/121/26 66/92/26 47/122/26
f 47/123/27 77/124/27 76/125/27
f 53/126/4 81/127/4 59/128/4
f 84/129/28 55/130/28 72/83/28
f 80/131/2 86/82/2 82/132/2
f 85/110/29 59/133/29 73/100/29
f 53/121/2 59/134/2 69/93/2
f 59/134/30 43/135/30 69/93/30
f 69/93/31 43/135/31 58/91/31
f 64/108/32 65/136/32 50/109/32
f 65/136/33 64/108/33 43/135/33
f 64/108/34 58/91/34 43/135/34
f 49/81/35 68/137/35 61/79/35
f 68/137/3 41/138/3 61/79/3
f 61/79/3 41/138/3 57/139/3
f 70/94/3 57/139/3 41/138/3
f 41/138/3 63/140/3 70/94/3
f 55/116/3 70/94/3 63/140/3
f 77/124/6 75/141/6 76/125/6
f 45/142/36 78/143/36 67/144/36
f 47/123/37 75/141/37 45/142/37
f 67/144/38 77/124/38 66/90/38
f 82/132/29 74/84/29 63/145/29
f 79/111/28 71/101/28 53/146/28
f 63/147/4 80/148/4 55/149/4
f 81/112/4 80/131/4 82/132/4
f 79/111/4 53/146/4 47/150/4
f 55/130/4 80/131/4 45/151/4
f 47/150/4 80/131/4 79/111/4
f 81/112/39 43/120/39 59/133/39
f 82/132/39 63/145/39 41/118/39
f 43/120/39 82/132/39 41/118/39
f 53/121/2 73/152/2 59/134/2
f 74/153/3 55/116/3 63/140/3
f 88/154/40 94/155/40 92/156/40
f 52/157/6 87/158/6 51/88/6
f 52/157/6 90/159/6 88/154/6
f 67/144/6 89/89/6 90/159/6
f 91/160/6 94/155/6 93/161/6
f 88/154/41 91/160/41 87/158/41
f 89/89/42 94/155/42 90/159/42
f 87/158/43 93/161/43 89/89/43
f 97/162/44 102/163/44 98/77/44
f 48/164/45 97/162/45 51/88/45
f 46/76/46 95/165/46 48/164/46
f 51/88/46 98/77/46 52/157/46
f 95/165/47 101/166/47 97/162/47
f 96/78/48 102/163/48 100/167/48
f 96/78/49 99/168/49 95/165/49
f 106/169/50 122/170/50 118/171/50
f 104/115/51 117/172/51 116/173/51
f 111/174/52 126/175/52 114/176/52
f 103/177/53 121/178/53 109/179/53
f 54/180/54 104/115/54 103/177/54
f 56/102/55 106/169/55 46/73/55
f 57/139/3 114/176/3 61/79/3
f 61/79/56 113/103/56 60/181/56
f 57/139/3 107/74/3 111/174/3
f 64/108/57 109/179/57 112/182/57
f 54/180/58 109/179/58 62/183/58
f 58/91/2 112/182/2 108/184/2
f 109/179/59 124/185/59 112/182/59
f 106/169/60 119/186/60 107/74/60
f 111/174/52 119/186/52 123/187/52
f 113/103/61 126/175/61 125/188/61
f 108/184/62 117/172/62 105/105/62
f 110/104/63 125/188/63 122/170/63
f 104/115/64 115/189/64 103/177/64
f 108/184/65 124/185/65 120/190/65
f 127/191/66 129/192/66 128/193/66
f 128/193/67 129/192/67 130/194/67
f 127/191/68 132/195/68 131/196/68
f 127/191/69 133/197/69 129/192/69
f 134/198/70 128/193/70 130/194/70
f 135/199/71 136/200/71 137/201/71
f 136/200/72 138/202/72 137/201/72
f 140/203/73 135/199/73 139/204/73
f 141/205/74 135/199/74 137/201/74
f 142/206/75 136/200/75 140/203/75
f 2/1/1 4/207/1 3/2/1
f 10/4/2 8/208/2 7/5/2
f 26/7/2 38/209/2 40/8/2
f 12/10/3 2/210/3 1/11/3
f 7/13/4 26/7/4 27/14/4
f 4/16/5 2/211/5 12/17/5
f 10/18/5 12/17/5 6/19/5
f 11/21/6 16/34/6 15/22/6
f 6/24/3 12/10/3 11/12/3
f 4/26/2 10/4/2 9/6/2
f 15/22/2 23/49/2 22/28/2
f 9/23/2 15/22/2 14/29/2
f 3/30/2 14/29/2 20/31/2
f 11/21/3 1/41/3 13/33/3
f 18/35/1 20/39/1 19/36/1
f 3/2/5 18/35/5 17/37/5
f 13/38/4 19/36/4 20/39/4
f 1/41/3 17/212/3 19/42/3
f 23/43/4 24/213/4 21/44/4
f 16/34/3 13/33/3 21/46/3
f 14/40/7 22/214/7 21/48/7
f 16/34/8 24/47/8 23/49/8
f 5/50/4 11/53/4 28/51/4
f 9/15/4 27/14/4 28/51/4
f 25/52/3 35/58/3 39/54/3
f 27/14/9 31/62/9 32/56/9
f 34/57/4 36/9/4 35/58/4
f 32/56/4 31/62/4 30/60/4
f 30/60/10 34/57/10 33/59/10
f 27/14/2 34/57/2 30/60/2
f 29/61/3 33/59/3 28/51/3
f 36/9/4 40/8/4 39/54/4
f 37/63/11 39/215/11 40/64/11
f 38/65/5 26/216/5 25/66/5
f 6/69/14 25/68/14 26/72/14
f 46/73/76 106/169/76 107/74/76
f 46/76/77 52/157/77 98/77/77
f 61/79/78 60/181/78 42/80/78
f 86/82/4 84/129/4 72/83/4
f 62/85/18 44/217/18 42/86/18
f 51/88/6 87/158/6 89/89/6
f 58/91/19 51/106/19 66/92/19
f 52/75/3 57/139/3 70/94/3
f 54/96/20 56/113/20 46/97/20
f 83/99/4 85/110/4 73/100/4
f 56/102/79 60/181/79 113/103/79
f 58/91/80 108/184/80 105/105/80
f 44/107/81 62/183/81 64/108/81
f 85/110/3 83/99/3 79/111/3
f 62/85/5 60/87/5 56/113/5
f 48/114/82 51/106/82 105/105/82
f 67/95/3 70/94/3 55/116/3
f 41/118/25 68/218/25 65/119/25
f 53/121/83 69/93/83 66/92/83
f 47/123/27 66/90/27 77/124/27
f 53/126/4 79/219/4 81/127/4
f 84/129/28 80/131/28 55/130/28
f 80/131/2 84/129/2 86/82/2
f 85/110/29 81/112/29 59/133/29
f 77/124/6 78/143/6 75/141/6
f 45/142/36 75/141/36 78/143/36
f 47/123/37 76/125/37 75/141/37
f 67/144/38 78/143/38 77/124/38
f 82/132/29 86/82/29 74/84/29
f 79/111/28 83/99/28 71/101/28
f 63/147/4 82/220/4 80/148/4
f 81/112/4 79/111/4 80/131/4
f 47/150/4 45/151/4 80/131/4
f 43/120/39 81/112/39 82/132/39
f 53/121/2 71/221/2 73/152/2
f 74/153/3 72/222/3 55/116/3
f 88/154/40 90/159/40 94/155/40
f 52/157/6 88/154/6 87/158/6
f 52/157/6 67/144/6 90/159/6
f 67/144/6 66/90/6 89/89/6
f 91/160/6 92/156/6 94/155/6
f 88/154/41 92/156/41 91/160/41
f 89/89/42 93/161/42 94/155/42
f 87/158/43 91/160/43 93/161/43
f 97/162/44 101/166/44 102/163/44
f 48/164/84 95/165/84 97/162/84
f 46/76/46 96/78/46 95/165/46
f 51/88/46 97/162/46 98/77/46
f 95/165/85 99/168/85 101/166/85
f 96/78/86 98/77/86 102/163/86
f 96/78/49 100/167/49 99/168/49
f 106/169/87 110/104/87 122/170/87
f 104/115/88 105/105/88 117/172/88
f 111/174/52 123/187/52 126/175/52
f 103/177/89 115/189/89 121/178/89
f 54/180/90 48/114/90 104/115/90
f 56/102/91 110/104/91 106/169/91
f 57/139/3 111/174/3 114/176/3
f 61/79/92 114/176/92 113/103/92
f 57/139/3 52/75/3 107/74/3
f 64/108/93 62/183/93 109/179/93
f 54/180/94 103/177/94 109/179/94
f 58/91/2 64/108/2 112/182/2
f 109/179/95 121/178/95 124/185/95
f 106/169/96 118/171/96 119/186/96
f 111/174/52 107/74/52 119/186/52
f 113/103/97 114/176/97 126/175/97
f 108/184/98 120/190/98 117/172/98
f 110/104/99 113/103/99 125/188/99
f 104/115/100 116/173/100 115/189/100
f 108/184/65 112/182/65 124/185/65
f 127/191/68 128/193/68 132/195/68
f 127/191/69 131/196/69 133/197/69
f 134/198/70 132/195/70 128/193/70
f 140/203/73 136/200/73 135/199/73
f 141/205/74 139/204/74 135/199/74
f 142/206/75 138/202/75 136/200/75
s 1
f 101/166/101 100/167/102 102/163/103
f 120/190/104 116/173/105 117/172/106
f 118/171/107 123/187/108 119/186/109
f 121/178/110 120/190/104 124/185/111
f 123/187/108 125/188/112 126/175/113
f 131/223/114 132/224/115 133/225/116
f 133/225/116 132/224/115 134/226/117
f 139/227/118 141/228/119 140/229/120
f 141/228/119 142/230/121 140/229/120
f 101/166/101 99/168/122 100/167/102
f 120/190/104 115/189/123 116/173/105
f 118/171/107 122/170/124 123/187/108
f 121/178/110 115/189/123 120/190/104
f 123/187/108 122/170/124 125/188/112
