# Blender v2.78 (sub 0) OBJ File: 'igs_warehouse_1.blend'
# www.blender.org
v 0.500000 0.500000 0.000000
v 0.500000 -0.500000 0.000000
v 0.500000 -0.350000 0.015000
v 0.500000 0.350000 0.015000
v 0.500000 -0.350000 0.001500
v 0.500000 0.350000 0.001500
v 0.500000 0.500000 0.000000
v 0.500000 -0.500000 0.000000
v 0.500000 -0.350000 0.015000
v 0.500000 0.350000 0.015000
v 0.500000 -0.350000 0.001500
v 0.500000 0.350000 0.001500
v 0.100000 0.500000 0.000000
v 0.100000 -0.500000 0.000000
v 0.100000 -0.350000 0.015000
v 0.100000 0.350000 0.015000
v 0.100000 -0.350000 0.001500
v 0.100000 0.350000 0.001500
v -0.100000 -0.315000 0.001202
v -0.100000 0.315000 0.001202
v -0.300000 -0.210000 0.000208
v -0.300000 0.250450 0.000208
v -0.400000 -0.074350 0.000208
v -0.400000 0.074350 0.000208
v -0.460523 -0.026569 0.000208
v -0.442576 0.034979 0.000208
vt 0.9246 0.5020
vt 0.9988 0.5020
vt 0.9246 0.5020
vt 0.5780 0.5020
vt 0.5780 0.5020
vt 0.5780 0.5020
vt 0.5037 0.5020
vt 0.5037 0.5020
vt 0.9246 0.5020
vt 0.5780 0.5020
vt 0.9246 0.7000
vt 0.5780 0.7000
vt 0.5780 0.7000
vt 0.5037 0.7000
vt 0.9246 0.7000
vt 0.5953 0.7990
vt 0.9072 0.7990
vt 0.9988 0.7000
vt 0.6473 0.8981
vt 0.8753 0.8981
vt 0.7881 0.9476
vt 0.7145 0.9476
vt 0.7686 0.9687
vt 0.7381 0.9775
vt 0.9988 0.5020
vt 0.9246 0.5020
vn 0.0000 0.0000 1.0000
vn 0.0000 1.0000 0.0000
vn 0.0000 0.0995 0.9950
vn 0.0000 -0.0995 0.9950
vn -0.0015 0.0000 1.0000
vn -0.1724 0.9850 0.0000
vn 0.1724 0.9850 0.0000
vn -0.0857 0.0991 0.9914
vn -0.0857 -0.0991 0.9914
vn -0.0050 0.0000 1.0000
vn -0.0109 0.0182 0.9998
vn -0.0194 -0.0274 0.9994
s off
f 4/1/1 7/2/1 10/3/1
f 3/4/1 11/5/1 9/6/1
f 2/7/1 9/6/1 8/8/1
f 4/1/1 12/9/1 10/3/1
f 5/10/1 12/9/1 11/5/1
f 12/9/2 16/11/2 10/3/2
f 12/9/1 17/12/1 11/5/1
f 7/2/3 16/11/3 10/3/3
f 11/5/2 15/13/2 9/6/2
f 9/6/4 14/14/4 8/8/4
f 18/15/5 19/16/5 17/12/5
f 18/15/6 20/17/6 16/11/6
f 17/12/7 19/16/7 15/13/7
f 13/18/8 20/17/8 16/11/8
f 15/13/9 19/16/9 14/14/9
f 20/17/10 21/19/10 19/16/10
f 20/17/11 13/18/11 22/20/11
f 19/16/12 21/19/12 14/14/12
f 21/19/1 24/21/1 23/22/1
f 23/22/1 26/23/1 25/24/1
f 4/1/1 1/25/1 7/2/1
f 3/4/1 5/10/1 11/5/1
f 2/7/1 3/4/1 9/6/1
f 4/1/1 6/26/1 12/9/1
f 5/10/1 6/26/1 12/9/1
f 12/9/2 18/15/2 16/11/2
f 12/9/1 18/15/1 17/12/1
f 7/2/3 13/18/3 16/11/3
f 11/5/2 17/12/2 15/13/2
f 9/6/4 15/13/4 14/14/4
f 18/15/5 20/17/5 19/16/5
f 20/17/10 22/20/10 21/19/10
f 21/19/1 22/20/1 24/21/1
f 23/22/1 24/21/1 26/23/1
