# Blender v2.78 (sub 0) OBJ File: 'igs_warehouse_1.blend'
# www.blender.org
v 0.500000 -0.500000 0.000000
v 0.500000 0.500000 0.000000
v 0.500000 -0.476636 0.001546
v 0.500000 0.000000 0.001464
v 0.500000 0.476636 0.001546
v 0.500000 0.357477 0.002291
v 0.500000 -0.357477 0.002291
v -0.500000 0.500000 0.000000
v -0.476636 0.500000 0.001546
v 0.000000 0.500000 0.001464
v 0.476636 0.500000 0.001546
v 0.357477 0.500000 0.002291
v -0.357477 0.500000 0.002291
v -0.207107 -0.207107 0.000000
v -0.190586 -0.190586 0.001546
v 0.146447 0.146447 0.001464
v 0.483479 0.483479 0.001546
v 0.399221 0.399221 0.002291
v -0.106328 -0.106328 0.002291
v -0.366025 0.000000 0.000000
v -0.345791 0.011682 0.001546
v 0.066987 0.250000 0.001464
v 0.479766 0.488318 0.001546
v 0.376571 0.428738 0.002291
v -0.242597 0.071262 0.002291
v -0.465926 0.241181 0.000000
v -0.443358 0.247228 0.001546
v 0.017037 0.370590 0.001464
v 0.477432 0.493953 0.001546
v 0.362333 0.463112 0.002291
v -0.328259 0.278069 0.002291
v 0.000000 -0.366025 0.000000
v 0.011682 -0.345791 0.001546
v 0.250000 0.066987 0.001464
v 0.488318 0.479766 0.001546
v 0.428738 0.376571 0.002291
v 0.071262 -0.242597 0.002291
v 0.241181 -0.465926 0.000000
v 0.247228 -0.443358 0.001546
v 0.370590 0.017037 0.001464
v 0.493953 0.477432 0.001546
v 0.463112 0.362333 0.002291
v 0.278069 -0.328259 0.002291
vt 0.0006 0.1450
vt 0.0121 0.0169
vt 0.0121 0.1435
vt 0.0147 0.0168
vt 0.0033 0.1439
vt 0.0033 0.0153
vt 0.0137 0.0173
vt 0.0022 0.1448
vt 0.0022 0.0157
vt 0.0140 0.0163
vt 0.0025 0.1440
vt 0.0025 0.0148
vt 0.0125 0.0167
vt 0.0010 0.1448
vt 0.0010 0.0152
vt 0.0124 0.0168
vt 0.0009 0.1449
vt 0.0009 0.0153
vt 0.0711 0.1356
vt 0.0711 0.0245
vt 0.0712 0.1356
vt 0.0712 0.0245
vt 0.0140 0.1425
vt 0.0725 0.0240
vt 0.0725 0.1348
vt 0.0721 0.0249
vt 0.0137 0.1433
vt 0.0729 0.0245
vt 0.0147 0.1424
vt 0.0708 0.0246
vt 0.0708 0.1358
vt 0.2468 0.1126
vt 0.2468 0.0478
vt 0.2475 0.1118
vt 0.2475 0.0475
vt 0.2473 0.1125
vt 0.2473 0.0480
vt 0.2480 0.0471
vt 0.2480 0.1117
vt 0.2471 0.1124
vt 0.2471 0.0476
vt 0.2470 0.0477
vt 0.4229 0.0893
vt 0.4229 0.0708
vt 0.4231 0.0708
vt 0.4231 0.0893
vt 0.4236 0.0886
vt 0.4236 0.0702
vt 0.4225 0.0711
vt 0.4221 0.0888
vt 0.4221 0.0705
vt 0.4228 0.0894
vt 0.4228 0.0710
vt 0.4815 0.0816
vt 0.4815 0.0786
vt 0.4817 0.0785
vt 0.4817 0.0816
vt 0.4821 0.0809
vt 0.4821 0.0779
vt 0.4810 0.0788
vt 0.4225 0.0895
vt 0.4804 0.0811
vt 0.4804 0.0781
vt 0.4814 0.0787
vt 0.4814 0.0817
vt 0.4930 0.0801
vt 0.4932 0.0800
vt 0.4935 0.0794
vt 0.4810 0.0818
vt 0.4924 0.0803
vt 0.4918 0.0796
vt 0.4929 0.0802
vt 0.0006 0.0154
vt 0.0125 0.1433
vt 0.0124 0.1433
vt 0.0721 0.1356
vt 0.0729 0.1348
vt 0.2470 0.1125
vn -0.0660 -0.0087 0.9978
vn -0.0615 -0.0255 0.9978
vn -0.0528 -0.0405 0.9978
vn -0.0405 -0.0528 0.9978
vn -0.0255 -0.0615 0.9978
vn -0.0087 -0.0660 0.9978
vn -0.0008 -0.0063 1.0000
vn -0.0024 -0.0058 1.0000
vn -0.0038 -0.0050 1.0000
vn -0.0050 -0.0038 1.0000
vn -0.0058 -0.0024 1.0000
vn -0.0063 -0.0008 1.0000
vn 0.0023 0.0003 1.0000
vn 0.0022 0.0009 1.0000
vn 0.0018 0.0014 1.0000
vn 0.0014 0.0018 1.0000
vn 0.0009 0.0022 1.0000
vn 0.0003 0.0023 1.0000
vn -0.0003 -0.0023 1.0000
vn -0.0009 -0.0022 1.0000
vn -0.0014 -0.0018 1.0000
vn -0.0018 -0.0014 1.0000
vn -0.0022 -0.0009 1.0000
vn -0.0023 -0.0003 1.0000
vn 0.0008 0.0063 1.0000
vn 0.0024 0.0058 1.0000
vn 0.0038 0.0050 1.0000
vn 0.0050 0.0038 1.0000
vn 0.0058 0.0024 1.0000
vn 0.0063 0.0008 1.0000
vn 0.0087 0.0660 0.9978
vn 0.0255 0.0615 0.9978
vn 0.0405 0.0528 0.9978
vn 0.0528 0.0405 0.9978
vn 0.0615 0.0255 0.9978
vn 0.0660 0.0087 0.9978
s off
f 8/1/1 27/2/1 9/3/1
f 21/4/2 26/5/2 20/6/2
f 15/7/3 20/8/3 14/9/3
f 33/10/4 14/11/4 32/12/4
f 39/13/5 32/14/5 38/15/5
f 3/16/6 38/17/6 1/18/6
f 43/19/7 3/16/7 7/20/7
f 37/21/8 39/13/8 43/22/8
f 15/23/9 37/24/9 19/25/9
f 19/26/10 21/27/10 15/7/10
f 25/28/11 27/29/11 21/4/11
f 9/3/12 31/30/12 13/31/12
f 10/32/13 31/30/13 28/33/13
f 28/34/14 25/28/14 22/35/14
f 22/36/15 19/26/15 16/37/15
f 19/25/16 34/38/16 16/39/16
f 34/40/17 43/22/17 40/41/17
f 4/42/18 43/19/18 7/20/18
f 42/43/19 4/42/19 6/44/19
f 34/40/20 42/45/20 36/46/20
f 18/47/21 34/38/21 36/48/21
f 18/49/22 22/36/22 16/37/22
f 30/50/23 22/35/23 24/51/23
f 12/52/24 28/33/24 30/53/24
f 41/54/25 6/44/25 5/55/25
f 36/46/26 41/56/26 35/57/26
f 17/58/27 36/48/27 35/59/27
f 17/60/28 24/61/28 18/49/28
f 29/62/29 24/51/29 23/63/29
f 12/52/30 29/64/30 11/65/30
f 2/66/31 41/54/31 5/55/31
f 41/56/32 2/67/32 35/57/32
f 35/59/33 2/68/33 17/58/33
f 23/69/34 17/60/34 2/70/34
f 29/62/35 23/63/35 2/71/35
f 29/64/36 2/72/36 11/65/36
f 8/1/1 26/73/1 27/2/1
f 21/4/2 27/29/2 26/5/2
f 15/7/3 21/27/3 20/8/3
f 33/10/4 15/23/4 14/11/4
f 39/13/5 33/74/5 32/14/5
f 3/16/6 39/75/6 38/17/6
f 43/19/7 39/75/7 3/16/7
f 37/21/8 33/74/8 39/13/8
f 15/23/9 33/10/9 37/24/9
f 19/26/10 25/76/10 21/27/10
f 25/28/11 31/77/11 27/29/11
f 9/3/12 27/2/12 31/30/12
f 10/32/13 13/31/13 31/30/13
f 28/34/14 31/77/14 25/28/14
f 22/36/15 25/76/15 19/26/15
f 19/25/16 37/24/16 34/38/16
f 34/40/17 37/21/17 43/22/17
f 4/42/18 40/78/18 43/19/18
f 42/43/19 40/78/19 4/42/19
f 34/40/20 40/41/20 42/45/20
f 18/47/21 16/39/21 34/38/21
f 18/49/22 24/61/22 22/36/22
f 30/50/23 28/34/23 22/35/23
f 12/52/24 10/32/24 28/33/24
f 41/54/25 42/43/25 6/44/25
f 36/46/26 42/45/26 41/56/26
f 17/58/27 18/47/27 36/48/27
f 17/60/28 23/69/28 24/61/28
f 29/62/29 30/50/29 24/51/29
f 12/52/30 30/53/30 29/64/30
