# Blender v2.78 (sub 0) OBJ File: 'igs_warehouse_1.blend'
# www.blender.org
o forklift_wheel
v -0.007478 -0.006010 -0.009382
v 0.010806 -0.006010 -0.005207
v -0.010806 -0.006010 -0.005207
v 0.010806 0.006010 0.005207
v 0.011994 0.006010 0.000000
v -0.010806 0.006010 0.005207
v -0.007478 -0.006010 0.009382
v -0.010806 -0.006010 0.005207
v 0.010806 -0.006010 0.005207
v -0.011994 -0.006010 -0.000000
v -0.002669 -0.006010 -0.011699
v 0.002669 -0.006010 -0.011699
v 0.007478 -0.006010 -0.009382
v 0.011994 -0.006010 -0.000000
v 0.007478 -0.006010 0.009382
v 0.002669 -0.006010 0.011699
v -0.002669 -0.006010 0.011699
v -0.010806 0.006010 -0.005207
v -0.011994 0.006010 0.000000
v -0.007478 0.006010 0.009382
v 0.007478 0.006010 0.009382
v -0.002669 0.006010 0.011699
v 0.002669 0.006010 0.011699
v 0.010806 0.006010 -0.005207
v 0.007478 0.006010 -0.009382
v 0.002669 0.006010 -0.011699
v -0.002669 0.006010 -0.011699
v -0.007478 0.006010 -0.009382
vt 0.7277 0.9092
vt 0.7102 0.9859
vt 0.7102 0.8952
vt 0.7277 0.9720
vt 0.7102 0.9859
vt 0.6884 0.8903
vt 0.6490 0.9092
vt 0.6665 0.8952
vt 0.6665 0.9859
vt 0.6884 0.8903
vt 0.7375 0.9294
vt 0.7375 0.9518
vt 0.7277 0.9720
vt 0.6884 0.9909
vt 0.6490 0.9720
vt 0.6393 0.9518
vt 0.6393 0.9294
vt 0.6490 0.9092
vt 0.6665 0.8952
vt 0.7102 0.8952
vt 0.7375 0.9518
vt 0.7277 0.9092
vt 0.7375 0.9294
vt 0.6884 0.9909
vt 0.6665 0.9859
vt 0.6490 0.9720
vt 0.6393 0.9518
vt 0.6393 0.9294
vt 0.8506 0.9740
vt 0.8189 0.9076
vt 0.8507 0.9076
vt 0.8189 0.9740
vt 0.7871 0.9076
vt 0.7871 0.9740
vt 0.7553 0.9076
vt 0.9778 0.9740
vt 0.9460 0.9076
vt 0.9778 0.9076
vt 0.9460 0.9740
vt 0.9142 0.9076
vt 0.9142 0.9740
vt 0.8824 0.9076
vt 0.8507 0.9740
vt 0.8507 0.9076
vt 0.8189 0.9740
vt 0.8189 0.9076
vt 0.7871 0.9076
vt 0.7871 0.9740
vt 0.7553 0.9076
vt 0.9777 0.9740
vt 0.9460 0.9076
vt 0.9778 0.9077
vt 0.9460 0.9740
vt 0.9142 0.9076
vt 0.8824 0.9740
vt 0.8825 0.9076
vt 0.7553 0.9740
vt 0.8824 0.9740
vt 0.7553 0.9740
vt 0.9142 0.9740
vn 0.0000 -1.0000 0.0000
vn 0.0000 1.0000 0.0000
vn -0.7510 -0.6603 -0.0000
vn -0.6768 0.6603 0.3255
vn -0.7510 0.6603 -0.0001
vn -0.6768 -0.6603 0.3255
vn -0.4684 0.6603 0.5871
vn -0.4684 -0.6603 0.5871
vn -0.1673 0.6602 0.7322
vn -0.1670 -0.6602 0.7323
vn 0.1670 0.6602 0.7323
vn 0.1673 -0.6602 0.7322
vn 0.4684 0.6603 0.5871
vn 0.4684 -0.6603 0.5871
vn 0.6767 0.6603 0.3258
vn 0.7510 -0.6603 0.0000
vn 0.7510 0.6603 -0.0000
vn 0.6766 -0.6603 -0.3258
vn 0.6766 0.6603 -0.3258
vn 0.4684 0.6603 -0.5871
vn 0.4684 -0.6603 -0.5871
vn 0.1673 0.6602 -0.7322
vn 0.1670 -0.6602 -0.7323
vn -0.1670 0.6602 -0.7323
vn -0.1673 -0.6602 -0.7322
vn -0.4684 0.6603 -0.5871
vn -0.6766 -0.6603 -0.3258
vn -0.6767 0.6603 -0.3257
vn 0.6766 -0.6603 0.3258
vn -0.4684 -0.6603 -0.5871
s off
f 1/1/1 2/2/1 3/3/1
f 4/4/2 5/5/2 6/6/2
f 7/7/1 8/8/1 9/9/1
f 10/10/1 3/3/1 2/2/1
f 1/1/1 11/11/1 12/12/1
f 12/12/1 13/13/1 1/1/1
f 2/2/1 14/14/1 10/10/1
f 9/9/1 15/15/1 7/7/1
f 16/16/1 17/17/1 7/7/1
f 8/8/1 10/10/1 9/9/1
f 1/1/1 13/13/1 2/2/1
f 14/14/1 9/9/1 10/10/1
f 16/16/1 7/7/1 15/15/1
f 18/18/2 19/19/2 5/5/2
f 6/6/2 20/20/2 21/21/2
f 22/22/2 23/23/2 21/21/2
f 21/21/2 4/4/2 6/6/2
f 5/5/2 24/24/2 18/18/2
f 25/25/2 26/26/2 27/27/2
f 27/27/2 28/28/2 25/25/2
f 19/19/2 6/6/2 5/5/2
f 22/22/2 21/21/2 20/20/2
f 24/24/2 25/25/2 18/18/2
f 28/28/2 18/18/2 25/25/2
s 1
f 10/29/3 6/30/4 19/31/5
f 8/32/6 20/33/7 6/30/4
f 7/34/8 22/35/9 20/33/7
f 17/36/10 23/37/11 22/38/9
f 16/39/12 21/40/13 23/37/11
f 15/41/14 4/42/15 21/40/13
f 4/42/15 14/43/16 5/44/17
f 5/44/17 2/45/18 24/46/19
f 2/45/18 25/47/20 24/46/19
f 13/48/21 26/49/22 25/47/20
f 12/50/23 27/51/24 26/52/22
f 11/53/25 28/54/26 27/51/24
f 28/54/26 3/55/27 18/56/28
f 3/55/27 19/31/5 18/56/28
f 10/29/3 8/32/6 6/30/4
f 8/32/6 7/34/8 20/33/7
f 7/34/8 17/57/10 22/35/9
f 17/36/10 16/39/12 23/37/11
f 16/39/12 15/41/14 21/40/13
f 15/41/14 9/58/29 4/42/15
f 4/42/15 9/58/29 14/43/16
f 5/44/17 14/43/16 2/45/18
f 2/45/18 13/48/21 25/47/20
f 13/48/21 12/59/23 26/49/22
f 12/50/23 11/53/25 27/51/24
f 11/53/25 1/60/30 28/54/26
f 28/54/26 1/60/30 3/55/27
f 3/55/27 10/29/3 19/31/5
