# Blender v2.78 (sub 0) OBJ File: 'igs_warehouse_1.blend'
# www.blender.org
v 0.500000 0.500000 0.000000
v -0.500000 0.500000 0.000000
v 0.500000 -0.500000 0.000000
v -0.500000 -0.500000 0.000000
v -0.500000 -0.497205 0.000000
v 0.500000 -0.350000 0.015000
v 0.500000 0.350000 0.015000
v -0.500000 0.350000 0.015000
v -0.500000 -0.350000 0.015000
v 0.500000 -0.350000 0.001500
v 0.500000 0.350000 0.001500
v -0.500000 0.350000 0.001500
v -0.500000 -0.350000 0.001500
vt 0.4223 0.0034
vt 0.4961 0.4953
vt 0.4223 0.4953
vt 0.0042 0.0034
vt 0.0780 0.4953
vt 0.0042 0.4953
vt 0.4223 0.0034
vt 0.0780 0.0034
vt 0.4223 0.4953
vt 0.0780 0.4953
vt 0.0780 0.0034
vt 0.4961 0.0034
vn 0.0000 -0.0995 0.9950
vn 0.0000 0.0995 0.9950
vn 0.0000 1.0000 0.0000
vn 0.0000 0.0000 1.0000
vn 0.0000 -1.0000 0.0000
s off
f 9/1/1 3/2/1 6/3/1
f 2/4/2 7/5/2 1/6/2
f 6/3/3 13/7/3 9/1/3
f 12/8/4 10/9/4 11/10/4
f 8/11/5 11/10/5 7/5/5
f 9/1/1 4/12/1 3/2/1
f 2/4/2 8/11/2 7/5/2
f 6/3/3 10/9/3 13/7/3
f 12/8/4 13/7/4 10/9/4
f 8/11/5 12/8/5 11/10/5
