# Blender v2.78 (sub 0) OBJ File: 'igs_warehouse_1.blend'
# www.blender.org
v -1.000000 -1.000000 0.000000
v 1.000000 -1.000000 0.000000
v -1.000000 1.000000 0.000000
v 1.000000 1.000000 0.000000
v -1.000000 -1.000000 0.012369
v 1.000000 -1.000000 0.012369
v -1.000000 1.000000 0.012369
v 1.000000 1.000000 0.012369
v -0.940739 -0.935549 0.012369
v 0.991448 -0.935549 0.012369
v -0.940739 0.935549 0.012369
v 0.991448 0.935549 0.012369
v -0.940739 -0.935549 0.061258
v 0.991448 -0.935549 0.061258
v -0.940739 0.935549 0.061258
v 0.991448 0.935549 0.061258
v -0.940739 -0.935549 0.061258
v 0.671109 -0.935549 0.061258
v -0.940739 0.935549 0.061258
v 0.671109 0.935549 0.061258
v -0.940739 -0.935549 0.639384
v 0.671109 -0.935549 0.639384
v -0.940739 0.935549 0.639384
v 0.671109 0.935549 0.639384
v -0.950307 -0.946656 0.639384
v 0.680677 -0.946656 0.639384
v -0.950307 0.946656 0.639384
v 0.680677 0.946656 0.639384
v -0.950307 -0.946656 0.658015
v 0.680677 -0.946656 0.658015
v -0.950307 0.946656 0.658015
v 0.680677 0.946656 0.658015
v -0.933757 -0.886401 0.658015
v 0.664127 -0.886401 0.658015
v -0.933757 0.886401 0.658015
v 0.664127 0.886401 0.658015
v -0.933757 0.295467 0.658015
v -0.933757 -0.295467 0.658015
v 0.664127 -0.295467 0.658015
v 0.664127 0.295467 0.658015
v -0.933757 -0.886401 0.794150
v 0.664127 -0.886401 0.794150
v -0.933757 0.295467 0.794150
v -0.933757 -0.295467 0.794150
v 0.664127 -0.295467 0.794150
v 0.664127 0.295467 0.794150
v 1.000000 -0.333333 0.000000
v 1.000000 0.333333 0.000000
v 1.000000 -0.333333 0.012369
v 1.000000 0.333333 0.012369
v 0.991448 -0.311850 0.012369
v 0.991448 0.311850 0.012369
v 0.991448 -0.311850 0.061258
v 0.991448 0.311850 0.061258
v 0.671109 -0.311850 0.061258
v 0.671109 0.311850 0.061258
v 0.671109 -0.311850 0.639384
v 0.671109 0.311850 0.639384
v 0.680677 -0.315552 0.639384
v 0.680677 0.315552 0.639384
v 0.680677 -0.315552 0.658015
v 0.680677 0.315552 0.658015
v 0.671109 -0.779624 0.455407
v 0.671109 -0.779624 0.061258
v 0.671109 -0.467774 0.061258
v 0.671109 -0.467774 0.455407
v 0.671109 -0.155925 0.061258
v 0.671109 0.155925 0.061258
v 0.671109 -0.155925 0.455407
v 0.671109 0.155925 0.455407
v 0.671109 0.467774 0.061258
v 0.671109 0.779624 0.061258
v 0.671109 0.467774 0.455407
v 0.671109 0.779624 0.455407
v 0.659522 -0.779624 0.455407
v 0.659522 -0.779624 0.061258
v 0.659522 -0.467774 0.061258
v 0.659522 -0.467774 0.455407
v 0.659522 -0.155925 0.061258
v 0.659522 0.155925 0.061258
v 0.659522 -0.155925 0.455407
v 0.659522 0.155925 0.455407
v 0.659522 0.467774 0.061258
v 0.659522 0.779624 0.061258
v 0.659522 0.467774 0.455407
v 0.659522 0.779624 0.455407
v 0.671109 0.907430 0.061258
v 0.671109 0.807743 0.061258
v 0.671109 0.907430 0.283291
v 0.671109 0.807743 0.283291
v 0.664653 0.907430 0.061258
v 0.664653 0.807743 0.061258
v 0.664653 0.907430 0.283291
v 0.664653 0.807743 0.283291
v 0.771109 0.935549 0.061258
v 0.771109 0.779624 0.061258
v 0.771109 0.919956 0.061258
v 0.771109 0.829294 0.061258
v 0.904442 0.779624 0.061258
v 0.904442 0.829294 0.061258
v 0.905085 0.935549 0.061258
v 0.771109 0.829294 0.041741
v 0.904442 0.829294 0.041741
v 0.771109 0.855870 0.041741
v 0.904442 0.855870 0.041741
v 0.771109 0.855870 0.023792
v 0.904442 0.855870 0.023792
v 0.771109 0.883928 0.023792
v 0.904442 0.883928 0.023792
v 0.771109 0.883928 0.011017
v 0.904442 0.883928 0.011017
v 0.771109 0.934369 0.011017
v 0.904442 0.934369 0.011017
v 0.663657 1.000000 0.000000
v 0.663657 1.000000 0.012369
v 0.670771 0.935549 0.012369
v -0.860147 -0.935549 0.282856
v 0.590516 -0.935549 0.282856
v 0.590516 0.935549 0.282856
v -0.860147 0.935549 0.282856
v -0.860147 -0.935549 0.450149
v 0.590516 -0.935549 0.450149
v 0.590516 0.935549 0.450149
v -0.860147 0.935549 0.450149
v -0.860147 -0.931411 0.282856
v 0.590516 -0.931411 0.282856
v 0.590516 0.931411 0.282856
v -0.860147 0.931411 0.282856
v -0.860147 -0.931411 0.450149
v 0.590516 -0.931411 0.450149
v 0.590516 0.931411 0.450149
v -0.860147 0.931411 0.450149
v -1.000000 0.333333 0.000000
v -1.000000 -0.333333 0.000000
v -1.000000 0.333333 0.012369
v -1.000000 -0.333333 0.012369
v -0.940739 0.311850 0.012369
v -0.940739 -0.311850 0.012369
v -0.940739 0.311850 0.061258
v -0.940739 -0.311850 0.061258
v -0.940739 0.311850 0.061258
v -0.940739 -0.311850 0.061258
v -0.940739 0.311850 0.639384
v -0.940739 -0.311850 0.639384
v -0.950307 0.315552 0.639384
v -0.950307 -0.315552 0.639384
v -0.950307 0.315552 0.658015
v -0.950307 -0.315552 0.658015
vt 0.6666 0.0022
vt 0.9657 0.0064
vt 0.6560 0.0064
vt 0.9977 0.0022
vt 0.6666 0.0022
vt 0.0044 0.9954
vt 0.3355 0.9954
vt 0.3355 0.9954
vt 0.9977 0.9954
vt 0.9977 0.1692
vt 0.9977 0.1692
vt 0.0044 0.0022
vt 0.0044 0.9954
vt 0.0365 0.9660
vt 0.3462 0.9660
vt 0.9977 0.0022
vt 0.9651 0.0496
vt 0.0044 0.0022
vt 0.8577 0.1547
vt 0.8468 0.1160
vt 0.8660 0.1160
vt 0.9129 0.1937
vt 0.9129 0.2096
vt 0.8090 0.2096
vt 0.9072 0.0117
vt 0.6655 0.0306
vt 0.6655 0.0117
vt 0.2864 0.1944
vt 0.0842 0.2102
vt 0.0842 0.1944
vt 0.6393 0.4312
vt 0.5945 0.5308
vt 0.5945 0.4312
vt 0.0000 0.0000
vt 0.0000 0.0000
vt 0.0000 0.0000
vt 0.9072 0.1547
vt 0.9011 0.1160
vt 0.9072 0.1160
vt 0.0000 0.0000
vt 0.0000 0.0000
vt 0.9561 0.9566
vt 0.9615 0.1699
vt 0.9561 0.1745
vt 0.2864 0.2102
vt 0.0842 0.3977
vt 0.0842 0.2102
vt 0.8090 0.3971
vt 0.7829 0.2814
vt 0.8090 0.3971
vt 0.7829 0.2814
vt 0.8090 0.2096
vt 0.0429 0.1699
vt 0.0429 0.9612
vt 0.0429 0.9612
vt 0.0483 0.1745
vt 0.0483 0.9566
vt 0.6553 0.1699
vt 0.6535 0.1745
vt 0.3491 0.9612
vt 0.3509 0.9566
vt 0.6553 0.1699
vt 0.3491 0.9612
vt 0.9615 0.9612
vt 0.9615 0.1699
vt 0.6734 0.4203
vt 0.8585 0.9207
vt 0.6734 0.9207
vt 0.8591 0.9207
vt 0.6740 0.4203
vt 0.6740 0.9207
vt 0.8597 0.4203
vt 0.6747 0.9207
vt 0.6747 0.4203
vt 0.9133 0.7872
vt 0.8789 0.6381
vt 0.9133 0.6381
vt 0.9133 0.7872
vt 0.8789 0.6381
vt 0.9133 0.6381
vt 0.9133 0.6381
vt 0.9133 0.7872
vt 0.8789 0.6381
vt 0.9133 0.6381
vt 0.8789 0.6381
vt 0.9133 0.7872
vt 0.9133 0.6381
vt 0.8789 0.6381
vt 0.9133 0.7872
vt 0.9133 0.6381
vt 0.8789 0.6381
vt 0.9133 0.7872
vt 0.0721 0.1779
vt 0.0429 0.1699
vt 0.9322 0.9532
vt 0.9615 0.9612
vt 0.3491 0.1699
vt 0.3491 0.1699
vt 0.3509 0.1745
vt 0.4239 0.0306
vt 0.1822 0.1547
vt 0.1822 0.0306
vt 0.4239 0.1547
vt 0.0921 0.4312
vt 0.1621 0.6080
vt 0.1621 0.4312
vt 0.0921 0.6906
vt 0.3020 0.6081
vt 0.3720 0.6906
vt 0.4239 0.0117
vt 0.1822 0.0117
vt 0.3355 0.0022
vt 0.3355 0.0022
vt 0.0365 0.0064
vt 0.3462 0.0064
vt 0.6051 0.1547
vt 0.4843 0.1592
vt 0.4843 0.1547
vt 0.3720 0.4312
vt 0.3020 0.6080
vt 0.3720 0.6906
vt 0.0000 0.0000
vt 0.0000 0.0000
vt 0.3635 0.1547
vt 0.2427 0.1592
vt 0.2427 0.1547
vt 0.1621 0.6081
vt 0.0000 0.0000
vt 0.0000 0.0000
vt 0.0000 0.0000
vt 0.3720 0.4312
vt 0.3020 0.4312
vt 0.5819 0.6080
vt 0.5819 0.4312
vt 0.5819 0.4312
vt 0.4420 0.6080
vt 0.6393 0.5308
vt 0.6393 0.4312
vt 0.6519 0.6906
vt 0.3020 0.4312
vt 0.1621 0.6080
vt 0.1621 0.4312
vt 0.3020 0.4312
vt 0.1621 0.6081
vt 0.1621 0.4312
vt 0.4420 0.6080
vt 0.4420 0.4312
vt 0.4420 0.4312
vt 0.1621 0.6080
vt 0.3020 0.6080
vt 0.3020 0.6080
vt 0.3020 0.6081
vt 0.8468 0.1547
vt 0.7260 0.1592
vt 0.7260 0.1547
vt 0.3020 0.4312
vt 0.1621 0.4312
vt 0.5819 0.6080
vt 0.1621 0.4312
vt 0.5945 0.5308
vt 0.8963 0.1547
vt 0.8577 0.1572
vt 0.5945 0.4312
vt 0.0000 0.0000
vt 0.0000 0.0000
vt 0.0000 0.0000
vt 0.6519 0.4312
vt 0.2863 0.1937
vt 0.2863 0.2096
vt 0.8660 0.0643
vt 0.9072 0.0306
vt 0.9072 0.0641
vt 0.8660 0.1160
vt 0.8660 0.0643
vt 0.8763 0.1160
vt 0.8763 0.0643
vt 0.8763 0.1160
vt 0.8763 0.0643
vt 0.8872 0.1160
vt 0.8872 0.0643
vt 0.8872 0.1160
vt 0.9401 0.0496
vt 0.9651 0.1158
vt 0.9401 0.1158
vt 0.9075 0.0642
vt 0.9264 0.0309
vt 0.9269 0.0645
vt 0.8468 0.0643
vt 0.8872 0.0643
vt 0.9067 0.0643
vt 0.9067 0.1160
vt 0.6655 0.1547
vt 0.2864 0.1937
vt 0.2863 0.2096
vt 0.9075 0.1159
vt 0.9264 0.1547
vt 0.9075 0.1545
vt 0.9657 0.1657
vt 0.9657 0.9660
vt 0.3588 0.1779
vt 0.6455 0.1779
vt 0.9322 0.1779
vt 0.3125 0.2814
vt 0.3125 0.2814
vt 0.3125 0.3357
vt 0.7829 0.3357
vt 0.7829 0.3357
vt 0.2863 0.3971
vt 0.7829 0.3357
vt 0.2863 0.3971
vt 0.3125 0.2814
vt 0.3125 0.3357
vt 0.7829 0.2814
vt 0.7829 0.2814
vt 0.7829 0.3357
vt 0.3125 0.2814
vt 0.3125 0.3357
vt 0.3125 0.3357
vt 0.6553 0.9612
vt 0.6553 0.9612
vt 0.6535 0.9566
vt 0.2864 0.2102
vt 0.0842 0.3977
vt 0.0842 0.2102
vt 0.2864 0.2102
vt 0.0842 0.3977
vt 0.0842 0.2102
vt 0.0000 0.0000
vt 0.0000 0.0000
vt 0.0000 0.0000
vt 0.0000 0.0000
vt 0.2864 0.1944
vt 0.0842 0.2102
vt 0.0842 0.1944
vt 0.2864 0.1944
vt 0.0842 0.2102
vt 0.0842 0.1944
vt 0.6666 0.9954
vt 0.9977 0.9954
vt 0.6560 0.9660
vt 0.6666 0.9954
vt 0.6455 0.9532
vt 0.3588 0.9532
vt 0.0721 0.9532
vt 0.2864 0.2102
vt 0.6393 0.5308
vt 0.0000 0.0000
vt 0.2864 0.3977
vt 0.8585 0.4203
vt 0.8591 0.4203
vt 0.8597 0.9207
vt 0.6051 0.1592
vt 0.3020 0.4312
vt 0.3635 0.1592
vt 0.0000 0.0000
vt 0.8468 0.1592
vt 0.8963 0.1572
vt 0.0000 0.0000
vt 0.9075 0.0309
vt 0.8090 0.1937
vt 0.9269 0.1159
vt 0.2864 0.3977
vt 0.2864 0.3977
vt 0.2864 0.2102
vt 0.2864 0.2102
vt 0.9133 0.6382
vt 0.8789 0.2335
vt 0.9133 0.2335
vt 0.9133 0.6382
vt 0.8789 0.2335
vt 0.9133 0.2335
vt 0.8789 0.6382
vt 0.9133 0.2335
vt 0.9133 0.6382
vt 0.8789 0.6382
vt 0.8789 0.6382
vt 0.8789 0.2335
vn -0.0000 0.0000 1.0000
vn 1.0000 0.0000 0.0000
vn -1.0000 0.0000 0.0000
vn 0.0000 1.0000 0.0000
vn 0.0000 -1.0000 0.0000
vn -0.0156 0.0021 0.9999
vn 0.0000 0.0000 -1.0000
vn 0.0000 0.2245 0.9745
vn -0.0132 0.9996 -0.0233
vn -0.9999 0.0061 0.0082
vn -1.0000 0.0081 0.0000
vn -0.9999 0.0000 0.0172
vn -0.9999 0.0032 0.0127
vn 0.0000 -0.0206 0.9998
vn 0.0135 0.0015 0.9999
vn 0.0114 0.9997 -0.0235
vn 0.3488 -0.2364 0.9069
vn -0.5664 -0.5132 0.6449
vn -0.3488 -0.2364 0.9069
vn 0.5664 -0.5132 0.6449
vn -0.3015 -0.3015 0.9045
vn 0.3015 -0.3015 0.9045
vn 0.5773 0.5773 0.5773
vn -0.5773 0.5773 -0.5773
vn -0.5773 0.5773 0.5773
vn -0.5773 -0.5773 0.5773
vn 0.5773 -0.5773 -0.5773
vn 0.5773 -0.5773 0.5773
vn 0.5773 0.5773 -0.5773
vn -0.5773 -0.5773 -0.5773
s off
f 50/1/1 12/2/1 52/3/1
f 4/4/2 50/1/2 48/5/2
f 1/6/3 136/7/3 134/8/3
f 3/9/4 115/10/4 114/11/4
f 2/12/5 5/13/5 1/6/5
f 136/7/1 9/14/1 138/15/1
f 12/2/6 8/16/6 113/17/6
f 6/18/1 9/14/1 5/13/1
f 88/19/1 96/20/1 98/21/1
f 10/22/5 14/23/5 18/24/5
f 12/25/2 54/26/2 52/27/2
f 9/28/3 140/29/3 138/30/3
f 91/31/2 94/32/2 92/33/2
f 13/34/1 18/35/1 17/36/1
f 20/37/1 97/38/1 95/39/1
f 140/40/1 17/36/1 142/41/1
f 23/42/7 28/43/7 24/44/7
f 17/45/3 144/46/3 142/47/3
f 22/48/5 118/49/5 18/24/5
f 23/50/4 120/51/4 19/52/4
f 26/53/5 29/54/5 25/55/5
f 22/56/7 25/55/7 21/57/7
f 24/44/7 60/58/7 58/59/7
f 21/57/7 146/60/7 144/61/7
f 28/43/2 62/62/2 60/58/2
f 25/55/3 148/63/3 146/60/3
f 27/64/4 32/65/4 28/43/4
f 38/66/8 42/67/8 39/68/8
f 44/69/8 40/70/8 37/71/8
f 43/72/8 36/73/8 35/74/8
f 36/75/2 46/76/2 40/77/2
f 40/78/2 45/79/2 39/80/2
f 34/81/2 39/82/2 42/83/2
f 33/84/3 41/85/3 38/86/3
f 38/87/3 44/88/3 37/89/3
f 37/90/3 43/91/3 35/92/3
f 34/93/1 29/54/1 30/94/1
f 35/95/1 32/65/1 31/96/1
f 59/97/2 30/94/2 26/53/2
f 60/58/2 61/98/2 59/97/2
f 22/56/7 59/97/7 26/53/7
f 58/59/7 59/97/7 57/99/7
f 53/100/1 18/101/1 14/102/1
f 54/26/1 55/103/1 53/100/1
f 55/104/2 66/105/2 65/106/2
f 57/107/2 70/108/2 58/109/2
f 51/110/2 14/102/2 10/111/2
f 52/27/2 53/100/2 51/110/2
f 47/112/2 6/18/2 2/12/2
f 48/5/2 49/113/2 47/112/2
f 49/113/1 10/114/1 6/18/1
f 50/1/1 51/115/1 49/113/1
f 68/116/1 79/117/1 67/118/1
f 18/119/2 63/120/2 22/121/2
f 22/121/2 66/105/2 57/107/2
f 18/35/3 65/122/3 64/123/3
f 65/124/1 76/125/1 64/126/1
f 55/104/2 69/127/2 57/107/2
f 55/128/3 68/129/3 67/130/3
f 56/131/2 70/108/2 68/132/2
f 74/133/5 84/134/5 72/135/5
f 56/131/2 73/136/2 58/109/2
f 89/137/5 91/31/5 87/138/5
f 58/109/2 74/133/2 24/139/2
f 77/140/2 75/141/2 76/142/2
f 80/143/2 81/144/2 79/145/2
f 84/134/2 85/146/2 83/147/2
f 71/148/4 85/146/4 73/136/4
f 63/149/7 78/150/7 66/151/7
f 69/127/7 82/152/7 70/108/7
f 72/153/1 83/154/1 71/155/1
f 66/151/5 77/140/5 65/156/5
f 67/157/4 81/144/4 69/127/4
f 73/136/7 86/158/7 74/133/7
f 64/159/4 75/141/4 63/149/4
f 70/108/5 80/143/5 68/132/5
f 72/135/2 90/160/2 74/133/2
f 87/161/1 92/162/1 88/19/1
f 88/163/4 94/32/4 90/160/4
f 90/164/7 93/165/7 89/166/7
f 87/138/2 20/167/2 89/137/2
f 24/139/2 89/137/2 20/167/2
f 74/133/2 89/137/2 24/139/2
f 10/22/5 18/24/5 9/168/5
f 17/169/5 9/168/5 18/24/5
f 87/161/1 98/21/1 97/38/1
f 96/20/1 100/170/1 98/21/1
f 16/171/1 101/172/1 100/170/1
f 100/170/4 102/173/4 98/21/4
f 103/174/1 104/175/1 102/173/1
f 105/176/4 106/177/4 104/175/4
f 107/178/1 108/179/1 106/177/1
f 109/180/4 110/181/4 108/179/4
f 111/182/1 112/183/1 110/184/1
f 101/185/9 12/186/9 113/187/9
f 16/171/1 99/188/1 54/26/1
f 105/176/10 100/170/10 101/172/10
f 103/174/3 100/170/3 105/176/3
f 107/178/11 105/176/11 101/172/11
f 109/180/12 107/178/12 101/172/12
f 111/189/3 109/180/3 113/190/3
f 113/190/13 109/180/13 101/172/13
f 110/181/2 112/191/2 108/179/2
f 112/191/2 95/39/2 108/179/2
f 95/39/2 97/38/2 108/179/2
f 108/179/2 97/38/2 106/177/2
f 104/175/2 106/177/2 97/38/2
f 102/173/2 104/175/2 98/21/2
f 97/38/2 98/21/2 104/175/2
f 71/155/1 99/188/1 72/153/1
f 54/26/1 71/155/1 56/192/1
f 114/11/4 8/16/4 4/4/4
f 8/16/14 115/10/14 113/17/14
f 112/183/14 113/17/14 115/10/14
f 116/193/4 19/52/4 20/194/4
f 95/195/4 116/196/4 20/197/4
f 115/10/15 116/198/15 112/183/15
f 115/10/1 11/199/1 116/198/1
f 34/93/1 61/98/1 39/200/1
f 39/200/1 62/62/1 40/201/1
f 36/202/1 62/62/1 32/65/1
f 118/49/1 125/203/1 117/204/1
f 121/205/7 130/206/7 122/207/7
f 24/208/4 124/209/4 23/50/4
f 21/210/5 122/207/5 22/48/5
f 21/210/5 117/204/5 121/205/5
f 19/52/4 119/211/4 20/194/4
f 24/208/4 119/211/4 123/212/4
f 18/24/5 117/204/5 17/169/5
f 124/209/2 128/213/2 120/51/2
f 122/207/3 126/214/3 118/49/3
f 123/212/7 132/215/7 124/209/7
f 120/51/1 127/216/1 119/211/1
f 117/204/2 129/217/2 121/205/2
f 119/211/3 131/218/3 123/212/3
f 145/219/3 31/96/3 27/64/3
f 146/60/3 147/220/3 145/219/3
f 23/42/7 145/219/7 27/64/7
f 144/61/7 145/219/7 143/221/7
f 141/222/3 23/223/3 19/224/3
f 142/225/3 143/226/3 141/227/3
f 15/228/1 141/229/1 19/230/1
f 139/231/1 142/41/1 141/229/1
f 137/232/3 15/233/3 11/234/3
f 138/235/3 139/236/3 137/237/3
f 135/238/1 11/199/1 7/239/1
f 136/7/1 137/240/1 135/238/1
f 133/241/3 7/239/3 3/9/3
f 134/8/3 135/238/3 133/241/3
f 35/95/1 147/220/1 37/242/1
f 37/242/1 148/63/1 38/243/1
f 33/244/1 148/63/1 29/54/1
f 50/1/1 8/16/1 12/2/1
f 4/4/2 8/16/2 50/1/2
f 1/6/3 5/13/3 136/7/3
f 3/9/4 7/239/4 115/10/4
f 2/12/5 6/18/5 5/13/5
f 136/7/1 5/13/1 9/14/1
f 6/18/1 10/114/1 9/14/1
f 88/19/1 72/153/1 96/20/1
f 12/25/2 16/171/2 54/26/2
f 9/28/3 13/245/3 140/29/3
f 91/31/2 93/246/2 94/32/2
f 13/34/1 14/247/1 18/35/1
f 20/37/1 87/161/1 97/38/1
f 140/40/1 13/34/1 17/36/1
f 23/42/7 27/64/7 28/43/7
f 17/45/3 21/248/3 144/46/3
f 22/48/5 122/207/5 118/49/5
f 23/50/4 124/209/4 120/51/4
f 26/53/5 30/94/5 29/54/5
f 22/56/7 26/53/7 25/55/7
f 24/44/7 28/43/7 60/58/7
f 21/57/7 25/55/7 146/60/7
f 28/43/2 32/65/2 62/62/2
f 25/55/3 29/54/3 148/63/3
f 27/64/4 31/96/4 32/65/4
f 38/66/8 41/249/8 42/67/8
f 44/69/8 45/250/8 40/70/8
f 43/72/8 46/251/8 36/73/8
f 34/93/1 33/244/1 29/54/1
f 35/95/1 36/202/1 32/65/1
f 59/97/2 61/98/2 30/94/2
f 60/58/2 62/62/2 61/98/2
f 22/56/7 57/99/7 59/97/7
f 58/59/7 60/58/7 59/97/7
f 53/100/1 55/103/1 18/101/1
f 54/26/1 56/192/1 55/103/1
f 55/104/2 57/107/2 66/105/2
f 57/107/2 69/127/2 70/108/2
f 51/110/2 53/100/2 14/102/2
f 52/27/2 54/26/2 53/100/2
f 47/112/2 49/113/2 6/18/2
f 48/5/2 50/1/2 49/113/2
f 49/113/1 51/115/1 10/114/1
f 50/1/1 52/3/1 51/115/1
f 68/116/1 80/252/1 79/117/1
f 18/119/2 64/253/2 63/120/2
f 22/121/2 63/120/2 66/105/2
f 18/35/3 55/128/3 65/122/3
f 65/124/1 77/254/1 76/125/1
f 55/104/2 67/157/2 69/127/2
f 55/128/3 56/255/3 68/129/3
f 56/131/2 58/109/2 70/108/2
f 74/133/5 86/158/5 84/134/5
f 56/131/2 71/148/2 73/136/2
f 89/137/5 93/246/5 91/31/5
f 58/109/2 73/136/2 74/133/2
f 77/140/2 78/150/2 75/141/2
f 80/143/2 82/152/2 81/144/2
f 84/134/2 86/158/2 85/146/2
f 71/148/4 83/147/4 85/146/4
f 63/149/7 75/141/7 78/150/7
f 69/127/7 81/144/7 82/152/7
f 72/153/1 84/256/1 83/154/1
f 66/151/5 78/150/5 77/140/5
f 67/157/4 79/145/4 81/144/4
f 73/136/7 85/146/7 86/158/7
f 64/159/4 76/142/4 75/141/4
f 70/108/5 82/152/5 80/143/5
f 72/135/2 88/163/2 90/160/2
f 87/161/1 91/257/1 92/162/1
f 88/163/4 92/33/4 94/32/4
f 90/164/7 94/258/7 93/165/7
f 74/133/2 90/160/2 89/137/2
f 87/161/1 88/19/1 98/21/1
f 96/20/1 99/188/1 100/170/1
f 100/170/4 103/174/4 102/173/4
f 103/174/1 105/176/1 104/175/1
f 105/176/4 107/178/4 106/177/4
f 107/178/1 109/180/1 108/179/1
f 109/180/4 111/189/4 110/181/4
f 111/182/1 113/17/1 112/183/1
f 101/185/4 16/259/4 12/186/4
f 16/171/1 100/170/1 99/188/1
f 71/155/1 54/26/1 99/188/1
f 114/11/4 115/10/4 8/16/4
f 116/193/4 11/260/4 19/52/4
f 95/195/16 112/261/16 116/196/16
f 115/10/1 7/239/1 11/199/1
f 34/93/1 30/94/1 61/98/1
f 39/200/1 61/98/1 62/62/1
f 36/202/1 40/201/1 62/62/1
f 118/49/1 126/214/1 125/203/1
f 121/205/7 129/217/7 130/206/7
f 24/208/4 123/212/4 124/209/4
f 21/210/5 121/205/5 122/207/5
f 21/210/5 17/169/5 117/204/5
f 19/52/4 120/51/4 119/211/4
f 24/208/4 20/194/4 119/211/4
f 18/24/5 118/49/5 117/204/5
f 124/209/2 132/215/2 128/213/2
f 122/207/3 130/206/3 126/214/3
f 123/212/7 131/218/7 132/215/7
f 120/51/1 128/213/1 127/216/1
f 117/204/2 125/203/2 129/217/2
f 119/211/3 127/216/3 131/218/3
f 145/219/3 147/220/3 31/96/3
f 146/60/3 148/63/3 147/220/3
f 23/42/7 143/221/7 145/219/7
f 144/61/7 146/60/7 145/219/7
f 141/222/3 143/262/3 23/223/3
f 142/225/3 144/263/3 143/226/3
f 15/228/1 139/231/1 141/229/1
f 139/231/1 140/40/1 142/41/1
f 137/232/3 139/264/3 15/233/3
f 138/235/3 140/265/3 139/236/3
f 135/238/1 137/240/1 11/199/1
f 136/7/1 138/15/1 137/240/1
f 133/241/3 135/238/3 7/239/3
f 134/8/3 136/7/3 135/238/3
f 35/95/1 31/96/1 147/220/1
f 37/242/1 147/220/1 148/63/1
f 33/244/1 38/243/1 148/63/1
s 1
f 40/266/17 43/267/18 37/268/19
f 39/269/17 44/270/18 38/271/19
f 42/272/20 33/273/21 34/274/22
f 128/213/23 131/218/24 127/216/25
f 126/214/26 129/217/27 125/203/28
f 40/266/17 46/275/20 43/267/18
f 39/269/17 45/276/20 44/270/18
f 42/272/20 41/277/18 33/273/21
f 128/213/23 132/215/29 131/218/24
f 126/214/26 130/206/30 129/217/27
