# Blender v2.78 (sub 0) OBJ File: 'igs_warehouse_1.blend'
# www.blender.org
v -0.500000 0.500000 0.000000
v 0.500000 0.500000 0.000000
v 0.483479 0.483479 0.001546
v -0.476636 0.500000 0.001546
v 0.000000 0.500000 0.001464
v 0.476636 0.500000 0.001546
v 0.357477 0.500000 0.002291
v -0.357477 0.500000 0.002291
v 0.399221 0.399221 0.002291
v -0.483479 0.483479 0.001546
v -0.399221 0.399221 0.002291
v 0.469529 0.480955 0.001512
v 0.370051 0.439750 0.002240
v -0.370051 0.439750 0.002240
v -0.469529 0.480955 0.001512
v -0.500000 -0.500000 0.000000
v -0.500000 -0.476636 0.001546
v -0.500000 0.000000 0.001464
v -0.500000 0.476636 0.001546
v -0.500000 0.357477 0.002291
v -0.500000 -0.357477 0.002291
v -0.483479 -0.483479 0.001546
v -0.399221 -0.399221 0.002291
v -0.480955 0.469529 0.001512
v -0.439750 0.370051 0.002240
v -0.439750 -0.370051 0.002240
v -0.480955 -0.469529 0.001512
v 0.500000 -0.500000 0.000000
v 0.476636 -0.500000 0.001546
v 0.000000 -0.500000 0.001464
v -0.476636 -0.500000 0.001546
v -0.357477 -0.500000 0.002291
v 0.357477 -0.500000 0.002291
v 0.483479 -0.483479 0.001546
v 0.399221 -0.399221 0.002291
v -0.469529 -0.480955 0.001512
v -0.370051 -0.439750 0.002240
v 0.370051 -0.439750 0.002240
v 0.469529 -0.480955 0.001512
v 0.500000 0.476636 0.001546
v 0.500000 0.000000 0.001464
v 0.500000 -0.476636 0.001546
v 0.500000 -0.357477 0.002291
v 0.500000 0.357477 0.002291
v 0.480955 -0.469529 0.001512
v 0.439750 -0.370051 0.002240
v 0.439750 0.370051 0.002240
v 0.480955 0.469529 0.001512
vt 0.9868 0.9813
vt 0.9465 0.9467
vt 0.9665 0.9324
vt 0.9868 0.5193
vt 0.9465 0.5539
vt 0.9880 0.5125
vt 0.9961 0.5745
vt 0.9961 0.5158
vt 0.9961 0.9262
vt 0.9961 0.9848
vt 0.9961 0.5044
vt 0.9880 0.9882
vt 0.9961 0.9963
vt 0.9961 0.7503
vt 0.9665 0.5683
vt 0.5192 0.9869
vt 0.5537 0.9467
vt 0.5681 0.9667
vt 0.9260 0.9963
vt 0.9811 0.9869
vt 0.9846 0.9963
vt 0.5743 0.9963
vt 0.5157 0.9963
vt 0.5123 0.9882
vt 0.5042 0.9963
vt 0.7501 0.9963
vt 0.9322 0.9667
vt 0.5135 0.5193
vt 0.5537 0.5539
vt 0.5338 0.5683
vt 0.5042 0.9262
vt 0.5135 0.9813
vt 0.5042 0.9848
vt 0.5042 0.5745
vt 0.5042 0.5158
vt 0.5123 0.5125
vt 0.5042 0.5044
vt 0.5042 0.7503
vt 0.5338 0.9324
vt 0.9811 0.5137
vt 0.5743 0.5044
vt 0.5192 0.5137
vt 0.5157 0.5044
vt 0.9260 0.5044
vt 0.9846 0.5044
vt 0.7501 0.5044
vt 0.9322 0.5340
vt 0.5681 0.5340
vn -0.0052 0.0050 1.0000
vn -0.0049 0.0138 0.9999
vn 0.0063 -0.0041 1.0000
vn -0.0063 -0.0041 1.0000
vn 0.0660 0.0273 0.9974
vn -0.0023 -0.0009 1.0000
vn 0.0023 -0.0009 1.0000
vn -0.0660 0.0273 0.9974
vn 0.0023 -0.0013 1.0000
vn -0.0023 -0.0013 1.0000
vn 0.0000 0.0129 0.9999
vn -0.0000 0.0012 1.0000
vn -0.0050 -0.0052 1.0000
vn 0.0041 0.0063 1.0000
vn 0.0041 -0.0063 1.0000
vn 0.0009 0.0023 1.0000
vn -0.0273 -0.0660 0.9974
vn 0.0013 0.0023 1.0000
vn 0.0013 -0.0023 1.0000
vn -0.0129 0.0000 0.9999
vn 0.0009 -0.0023 1.0000
vn -0.0273 0.0660 0.9974
vn -0.0138 -0.0049 0.9999
vn 0.0052 -0.0050 1.0000
vn -0.0012 -0.0000 1.0000
vn -0.0063 0.0041 1.0000
vn 0.0063 0.0041 1.0000
vn 0.0049 -0.0138 0.9999
vn 0.0023 0.0009 1.0000
vn -0.0023 0.0009 1.0000
vn 0.0660 -0.0273 0.9974
vn -0.0023 0.0013 1.0000
vn 0.0023 0.0013 1.0000
vn 0.0000 -0.0129 0.9999
vn -0.0660 -0.0273 0.9974
vn 0.0138 -0.0049 0.9999
vn -0.0041 -0.0063 1.0000
vn -0.0041 0.0063 1.0000
vn -0.0009 -0.0023 1.0000
vn 0.0273 0.0660 0.9974
vn -0.0013 -0.0023 1.0000
vn -0.0013 0.0023 1.0000
vn 0.0129 -0.0000 0.9999
vn -0.0009 0.0023 1.0000
vn 0.0273 -0.0660 0.9974
vn 0.0138 0.0049 0.9999
vn 0.0000 -0.0012 1.0000
vn 0.0012 -0.0000 1.0000
vn -0.0000 -0.0000 1.0000
vn 0.0049 0.0138 0.9999
vn 0.0052 0.0050 1.0000
vn 0.0071 0.0006 1.0000
vn -0.0071 0.0006 1.0000
vn -0.0138 0.0049 0.9999
vn -0.0006 0.0071 1.0000
vn -0.0006 -0.0071 1.0000
vn -0.0050 0.0052 1.0000
vn -0.0049 -0.0138 0.9999
vn -0.0071 -0.0006 1.0000
vn 0.0071 -0.0006 1.0000
vn -0.0052 -0.0050 1.0000
vn 0.0050 0.0052 1.0000
vn 0.0006 -0.0071 1.0000
vn 0.0006 0.0071 1.0000
vn 0.0050 -0.0052 1.0000
s off
f 15/1/1 11/2/1 14/3/1
f 12/4/2 9/5/2 3/6/2
f 7/7/3 12/4/3 6/8/3
f 15/1/4 8/9/4 4/10/4
f 6/8/5 3/6/5 2/11/5
f 12/4/6 3/6/6 6/8/6
f 15/1/7 4/10/7 10/12/7
f 4/10/8 1/13/8 10/12/8
f 5/14/9 8/9/9 14/3/9
f 7/7/10 5/14/10 13/15/10
f 13/15/11 5/14/11 14/3/11
f 13/15/12 11/2/12 9/5/12
f 27/16/13 23/17/13 26/18/13
f 20/19/14 24/20/14 19/21/14
f 27/16/15 21/22/15 17/23/15
f 27/16/16 17/23/16 22/24/16
f 17/23/17 16/25/17 22/24/17
f 18/26/18 21/22/18 26/18/18
f 20/19/19 18/26/19 25/27/19
f 25/27/20 18/26/20 26/18/20
f 24/20/21 10/12/21 19/21/21
f 10/12/22 1/13/22 19/21/22
f 24/20/23 11/2/23 10/12/23
f 39/28/24 35/29/24 38/30/24
f 23/17/25 25/27/25 26/18/25
f 32/31/26 36/32/26 31/33/26
f 39/28/27 33/34/27 29/35/27
f 36/32/28 23/17/28 22/24/28
f 36/32/29 22/24/29 31/33/29
f 39/28/30 29/35/30 34/36/30
f 29/35/31 28/37/31 34/36/31
f 30/38/32 33/34/32 38/30/32
f 32/31/33 30/38/33 37/39/33
f 37/39/34 30/38/34 38/30/34
f 31/33/35 22/24/35 16/25/35
f 9/5/36 48/40/36 3/6/36
f 43/41/37 45/42/37 42/43/37
f 48/40/38 44/44/38 40/45/38
f 40/45/39 3/6/39 48/40/39
f 3/6/40 40/45/40 2/11/40
f 41/46/41 44/44/41 47/47/41
f 43/41/42 41/46/42 46/48/42
f 46/48/43 41/46/43 47/47/43
f 45/42/44 34/36/44 42/43/44
f 34/36/45 28/37/45 42/43/45
f 45/42/46 35/29/46 34/36/46
f 23/17/47 38/30/47 35/29/47
f 35/29/48 47/47/48 9/5/48
f 11/2/49 35/29/49 9/5/49
f 15/1/50 10/12/50 11/2/50
f 12/4/51 13/15/51 9/5/51
f 7/7/52 13/15/52 12/4/52
f 15/1/53 14/3/53 8/9/53
f 13/15/12 14/3/12 11/2/12
f 27/16/54 22/24/54 23/17/54
f 20/19/55 25/27/55 24/20/55
f 27/16/56 26/18/56 21/22/56
f 24/20/57 25/27/57 11/2/57
f 39/28/58 34/36/58 35/29/58
f 23/17/25 11/2/25 25/27/25
f 32/31/59 37/39/59 36/32/59
f 39/28/60 38/30/60 33/34/60
f 36/32/61 37/39/61 23/17/61
f 9/5/62 47/47/62 48/40/62
f 43/41/63 46/48/63 45/42/63
f 48/40/64 47/47/64 44/44/64
f 45/42/65 46/48/65 35/29/65
f 23/17/47 37/39/47 38/30/47
f 35/29/48 46/48/48 47/47/48
f 11/2/49 23/17/49 35/29/49
