# Blender v2.78 (sub 0) OBJ File: 'igs_warehouse_1.blend'
# www.blender.org
v 0.500000 -0.500000 0.000000
v 0.500000 0.500000 0.000000
v 0.500000 0.497205 0.000000
v 0.500000 -0.350000 0.015000
v 0.500000 0.350000 0.015000
v 0.500000 -0.350000 0.001500
v 0.500000 0.350000 0.001500
v 0.241181 -0.465926 0.000000
v 0.500000 0.500000 0.000000
v 0.499277 0.497300 0.000000
v 0.280004 -0.321037 0.015000
v 0.461177 0.355111 0.015000
v 0.280004 -0.321037 0.001500
v 0.461177 0.355111 0.001500
v -0.000000 -0.366025 0.000000
v 0.500000 0.500000 0.000000
v 0.498603 0.497579 0.000000
v 0.075000 -0.236122 0.015000
v 0.425000 0.370096 0.015000
v 0.075000 -0.236122 0.001500
v 0.425000 0.370096 0.001500
v -0.207107 -0.207107 0.000000
v 0.500000 0.500000 0.000000
v 0.498024 0.498023 0.000000
v -0.101041 -0.101041 0.015000
v 0.393934 0.393934 0.015000
v -0.101041 -0.101041 0.001500
v 0.393934 0.393934 0.001500
v -0.366025 0.000000 0.000000
v 0.500000 0.500000 0.000000
v 0.497579 0.498602 0.000000
v -0.236122 0.075000 0.015000
v 0.370096 0.425000 0.015000
v -0.236122 0.075000 0.001500
v 0.370096 0.425000 0.001500
v -0.465926 0.241181 0.000000
v 0.500000 0.500000 0.000000
v 0.497300 0.499276 0.000000
v -0.321037 0.280004 0.015000
v 0.355111 0.461177 0.015000
v -0.321037 0.280004 0.001500
v 0.355111 0.461177 0.001500
v -0.500000 0.500000 0.000000
v 0.500000 0.500000 0.000000
v 0.497205 0.500000 0.000000
v -0.350000 0.500000 0.015000
v 0.350000 0.500000 0.015000
v -0.350000 0.500000 0.001500
v 0.350000 0.500000 0.001500
vt 0.4981 0.5021
vt 0.4968 0.5025
vt 0.4981 0.5021
vt 0.4243 0.5021
vt 0.4269 0.5212
vt 0.4243 0.5021
vt 0.0800 0.5021
vt 0.0230 0.6294
vt 0.0063 0.5021
vt 0.4269 0.5212
vt 0.0943 0.6103
vt 0.0800 0.5021
vt 0.4342 0.5390
vt 0.0943 0.6103
vt 0.0722 0.7480
vt 0.4981 0.5021
vt 0.4342 0.5390
vt 0.1361 0.7111
vt 0.4969 0.5028
vt 0.4460 0.5543
vt 0.1361 0.7111
vt 0.1503 0.8499
vt 0.4981 0.5021
vt 0.4460 0.5543
vt 0.2025 0.7977
vt 0.4972 0.5031
vt 0.2891 0.8642
vt 0.2522 0.9281
vt 0.4981 0.5021
vt 0.4612 0.5660
vt 0.2025 0.7977
vt 0.2891 0.8642
vt 0.4974 0.5033
vt 0.4612 0.5660
vt 0.4981 0.5021
vt 0.4790 0.5734
vt 0.3899 0.9059
vt 0.4790 0.5734
vt 0.4978 0.5034
vt 0.3708 0.9772
vt 0.3899 0.9059
vt 0.4981 0.9202
vt 0.4981 0.5759
vt 0.4981 0.5035
vt 0.4981 0.5021
vt 0.4981 0.9940
vt 0.4981 0.5759
vt 0.4968 0.5021
vt 0.4981 0.9202
vn 0.0000 0.0000 1.0000
vn -0.1305 -0.9914 0.0000
vn -0.0131 -0.0995 0.9950
vn 0.0131 0.0995 0.9950
vn -0.3827 -0.9239 0.0000
vn -0.0384 -0.0927 0.9950
vn 0.0384 0.0927 0.9950
vn -0.6088 -0.7934 0.0000
vn -0.0611 -0.0796 0.9950
vn 0.0611 0.0796 0.9950
vn -0.0796 -0.0611 0.9950
vn 0.0796 0.0611 0.9950
vn -0.7934 -0.6088 0.0000
vn 0.0927 0.0384 0.9950
vn -0.9239 -0.3827 0.0000
vn -0.0927 -0.0384 0.9950
vn -0.9914 -0.1305 0.0000
vn -0.0995 -0.0131 0.9950
vn 0.0995 0.0131 0.9950
vn 0.0000 0.0000 -1.0000
s off
f 2/1/1 10/2/1 9/3/1
f 5/4/2 14/5/2 7/6/2
f 4/7/3 8/8/3 1/9/3
f 5/4/4 9/3/4 12/10/4
f 4/7/2 13/11/2 6/12/2
f 7/6/1 13/11/1 6/12/1
f 12/10/5 21/13/5 14/5/5
f 11/14/6 15/15/6 8/8/6
f 12/10/7 16/16/7 19/17/7
f 11/14/5 20/18/5 13/11/5
f 13/11/1 21/13/1 20/18/1
f 9/3/1 17/19/1 16/16/1
f 19/17/8 28/20/8 21/13/8
f 18/21/9 22/22/9 15/15/9
f 19/17/10 23/23/10 26/24/10
f 18/21/8 27/25/8 20/18/8
f 21/13/1 27/25/1 20/18/1
f 16/16/1 24/26/1 23/23/1
f 22/22/11 32/27/11 29/28/11
f 26/24/12 30/29/12 33/30/12
f 25/31/13 34/32/13 27/25/13
f 28/20/1 34/32/1 27/25/1
f 23/23/1 31/33/1 30/29/1
f 26/24/13 35/34/13 28/20/13
f 33/30/14 37/35/14 40/36/14
f 32/27/15 41/37/15 34/32/15
f 34/32/1 42/38/1 41/37/1
f 30/29/1 38/39/1 37/35/1
f 33/30/15 42/38/15 35/34/15
f 32/27/16 36/40/16 29/28/16
f 39/41/17 48/42/17 41/37/17
f 41/37/1 49/43/1 48/42/1
f 37/35/1 45/44/1 44/45/1
f 40/36/17 49/43/17 42/38/17
f 39/41/18 43/46/18 36/40/18
f 40/36/19 44/45/19 47/47/19
f 2/1/20 3/48/20 10/2/20
f 5/4/2 12/10/2 14/5/2
f 4/7/3 11/14/3 8/8/3
f 5/4/1 2/1/1 9/3/1
f 4/7/2 11/14/2 13/11/2
f 7/6/1 14/5/1 13/11/1
f 12/10/5 19/17/5 21/13/5
f 11/14/6 18/21/6 15/15/6
f 12/10/1 9/3/1 16/16/1
f 11/14/5 18/21/5 20/18/5
f 13/11/1 14/5/1 21/13/1
f 9/3/20 10/2/20 17/19/20
f 19/17/8 26/24/8 28/20/8
f 18/21/9 25/31/9 22/22/9
f 19/17/1 16/16/1 23/23/1
f 18/21/8 25/31/8 27/25/8
f 21/13/1 28/20/1 27/25/1
f 16/16/20 17/19/20 24/26/20
f 22/22/11 25/31/11 32/27/11
f 26/24/1 23/23/1 30/29/1
f 25/31/13 32/27/13 34/32/13
f 28/20/1 35/34/1 34/32/1
f 23/23/20 24/26/20 31/33/20
f 26/24/13 33/30/13 35/34/13
f 33/30/1 30/29/1 37/35/1
f 32/27/15 39/41/15 41/37/15
f 34/32/1 35/34/1 42/38/1
f 30/29/20 31/33/20 38/39/20
f 33/30/15 40/36/15 42/38/15
f 32/27/16 39/41/16 36/40/16
f 39/41/17 46/49/17 48/42/17
f 41/37/1 42/38/1 49/43/1
f 37/35/20 38/39/20 45/44/20
f 40/36/17 47/47/17 49/43/17
f 39/41/18 46/49/18 43/46/18
f 40/36/1 37/35/1 44/45/1
