# Blender v2.78 (sub 0) OBJ File: 'igs_warehouse_1.blend'
# www.blender.org
v -0.500000 0.500000 0.000000
v -0.500000 -0.500000 0.000000
v 0.500000 0.500000 0.000000
v 0.500000 -0.500000 0.000000
v 0.476636 0.500000 0.001546
v -0.000000 0.500000 0.001464
v -0.476636 0.500000 0.001546
v -0.476636 -0.500000 0.001546
v 0.000000 -0.500000 0.001464
v 0.476636 -0.500000 0.001546
v 0.357477 0.500000 0.002291
v 0.357477 -0.500000 0.002291
v -0.357477 0.500000 0.002291
v -0.357477 -0.500000 0.002291
v 0.483479 -0.483479 0.001546
v 0.500000 0.476636 0.001546
v 0.500000 0.000000 0.001464
v 0.500000 -0.476636 0.001546
v 0.500000 -0.357477 0.002291
v 0.500000 0.357477 0.002291
v 0.399221 -0.399221 0.002291
v 0.483479 0.483479 0.001546
v 0.399221 0.399221 0.002291
v 0.370051 -0.439750 0.002240
v 0.469529 -0.480955 0.001512
v 0.480955 -0.469529 0.001512
v 0.439750 -0.370051 0.002240
v 0.439750 0.370051 0.002240
v 0.480955 0.469529 0.001512
v 0.469529 0.480955 0.001512
v 0.370051 0.439750 0.002240
vt 0.9981 0.4266
vt 0.9887 0.4821
vt 0.9683 0.4328
vt 0.9981 0.0017
vt 0.5026 0.0132
vt 0.5026 0.0017
vt 0.5026 0.0723
vt 0.9981 0.2494
vt 0.5026 0.2494
vt 0.5177 0.4878
vt 0.5525 0.4473
vt 0.5670 0.4674
vt 0.9482 0.4473
vt 0.9981 0.0132
vt 0.9830 0.4878
vt 0.9900 0.4890
vt 0.5120 0.4821
vt 0.5325 0.4328
vt 0.9275 0.4972
vt 0.9866 0.4972
vt 0.5732 0.4972
vt 0.5142 0.4972
vt 0.5026 0.4266
vt 0.5026 0.4856
vt 0.9981 0.4856
vt 0.9981 0.4972
vt 0.5108 0.4890
vt 0.5026 0.4972
vt 0.7504 0.4972
vt 0.9338 0.4674
vt 0.9981 0.0723
vn 0.0071 -0.0006 1.0000
vn -0.0660 0.0000 0.9978
vn 0.0023 0.0000 1.0000
vn 0.0050 0.0052 1.0000
vn 0.0052 -0.0050 1.0000
vn -0.0063 0.0000 1.0000
vn 0.0138 0.0049 0.9999
vn 0.0052 0.0050 1.0000
vn -0.0041 -0.0063 1.0000
vn -0.0041 0.0063 1.0000
vn 0.0063 -0.0041 1.0000
vn -0.0023 0.0009 1.0000
vn 0.0660 -0.0273 0.9974
vn 0.0273 -0.0660 0.9974
vn -0.0009 0.0023 1.0000
vn -0.0009 -0.0023 1.0000
vn -0.0023 -0.0009 1.0000
vn 0.0273 0.0660 0.9974
vn 0.0660 0.0273 0.9974
vn -0.0013 -0.0023 1.0000
vn -0.0013 0.0023 1.0000
vn 0.0129 -0.0000 0.9999
vn 0.0012 0.0000 1.0000
vn -0.0023 -0.0000 1.0000
vn 0.0040 0.0000 1.0000
vn -0.0017 -0.0000 1.0000
vn 0.0063 0.0041 1.0000
vn 0.0138 -0.0049 0.9999
vn -0.0049 -0.0138 0.9999
vn 0.0050 -0.0052 1.0000
vn -0.0049 0.0138 0.9999
vn 0.0006 -0.0071 1.0000
vn 0.0006 0.0071 1.0000
vn 0.0071 0.0006 1.0000
s off
f 12/1/1 25/2/1 24/3/1
f 2/4/2 7/5/2 1/6/2
f 13/7/3 9/8/3 6/9/3
f 29/10/4 23/11/4 28/12/4
f 25/2/5 21/13/5 24/3/5
f 8/14/6 13/7/6 7/5/6
f 26/15/7 21/13/7 15/16/7
f 23/11/8 30/17/8 31/18/8
f 19/19/9 26/15/9 18/20/9
f 29/10/10 20/21/10 16/22/10
f 11/23/11 30/17/11 5/24/11
f 25/2/12 10/25/12 15/16/12
f 10/25/13 4/26/13 15/16/13
f 18/20/14 15/16/14 4/26/14
f 26/15/15 15/16/15 18/20/15
f 29/10/16 16/22/16 22/27/16
f 30/17/17 22/27/17 5/24/17
f 16/22/18 3/28/18 22/27/18
f 22/27/19 3/28/19 5/24/19
f 17/29/20 20/21/20 28/12/20
f 19/19/21 17/29/21 27/30/21
f 27/30/22 17/29/22 28/12/22
f 27/30/23 23/11/23 21/13/23
f 12/1/24 6/9/24 9/8/24
f 31/18/25 12/1/25 24/3/25
f 24/3/26 23/11/26 31/18/26
f 12/1/27 10/25/27 25/2/27
f 2/4/2 8/14/2 7/5/2
f 13/7/3 14/31/3 9/8/3
f 29/10/28 22/27/28 23/11/28
f 25/2/29 15/16/29 21/13/29
f 8/14/6 14/31/6 13/7/6
f 26/15/30 27/30/30 21/13/30
f 23/11/31 22/27/31 30/17/31
f 19/19/32 27/30/32 26/15/32
f 29/10/33 28/12/33 20/21/33
f 11/23/34 31/18/34 30/17/34
f 27/30/23 28/12/23 23/11/23
f 12/1/24 11/23/24 6/9/24
f 31/18/25 11/23/25 12/1/25
f 24/3/26 21/13/26 23/11/26
